<?xml version="1.0" standalone="no"?>
<!DOCTYPE svg PUBLIC "-//W3C//DTD SVG 1.1//EN" "http://www.w3.org/Graphics/SVG/1.1/DTD/svg11.dtd" >
<svg xmlns="http://www.w3.org/2000/svg">
<metadata>Generated by IcoMoon</metadata>
<defs>
<font id="icomoon" horiz-adv-x="1024">
<font-face units-per-em="1024" ascent="960" descent="-64" />
<missing-glyph horiz-adv-x="1024" />
<glyph unicode="&#x20;" horiz-adv-x="512" d="" />
<glyph unicode="&#xe900;" glyph-name="paperplane" d="M1009.376 954.88c-5.312 3.424-11.36 5.12-17.376 5.12-6.176 0-12.384-1.76-17.76-5.376l-960-640c-9.888-6.56-15.328-18.112-14.048-29.952 1.216-11.808 8.896-22.016 19.936-26.368l250.368-100.192 117.728-206.016c5.632-9.888 16.096-16 27.424-16.128 0.128 0 0.224 0 0.352 0 11.232 0 21.664 5.952 27.424 15.552l66.464 110.816 310.24-124.064c3.808-1.536 7.808-2.272 11.872-2.272 5.44 0 10.816 1.376 15.68 4.128 8.448 4.736 14.24 13.056 15.872 22.624l160 960c2.080 12.576-3.488 25.184-14.176 32.128zM100.352 295.136l741.6 494.432-539.2-577.184c-2.848 1.696-5.376 3.936-8.512 5.184l-193.888 77.568zM326.048 189.888c-0.064 0.128-0.16 0.192-0.224 0.32l606.176 648.8-516.768-805.184-89.184 156.064zM806.944 12.512l-273.312 109.312c-6.496 2.56-13.248 3.424-19.936 3.808l420.864 652.416-127.616-765.536z" />
<glyph unicode="&#xe901;" glyph-name="params" d="M256 767.328v96.672c0 52.928-43.072 96-96 96s-96-43.072-96-96v-96.672c-38.656-29.28-64-75.136-64-127.328s25.344-98.048 64-127.264v-480.736c0-52.928 43.072-96 96-96s96 43.072 96 96v480.736c38.656 29.184 64 75.072 64 127.264s-25.344 98.048-64 127.328zM128 864c0 17.696 14.304 32 32 32s32-14.304 32-32v-67.2c-10.336 2.080-21.024 3.2-32 3.2s-21.664-1.12-32-3.2v67.2zM192 32c0-17.696-14.304-32-32-32s-32 14.304-32 32v451.264c10.336-2.144 21.024-3.264 32-3.264s21.664 1.12 32 3.264v-451.264zM251.68 613.12c-0.512-1.696-0.96-3.36-1.568-5.056-3.040-8.448-6.944-16.448-12.096-23.552-0.128-0.192-0.32-0.32-0.448-0.512-5.568-7.616-12.192-14.368-19.712-20.064-0.128-0.128-0.224-0.192-0.32-0.256-7.712-5.824-16.32-10.496-25.568-13.76-10.016-3.616-20.672-5.92-31.968-5.92s-21.952 2.304-32 5.952c-9.248 3.264-17.856 7.936-25.568 13.76-0.096 0.064-0.192 0.128-0.32 0.256-7.52 5.696-14.144 12.448-19.712 20.064-0.128 0.192-0.32 0.32-0.448 0.512-5.152 7.136-9.056 15.136-12.096 23.552-0.608 1.696-1.056 3.36-1.568 5.056-2.528 8.544-4.288 17.472-4.288 26.848 0 9.44 1.76 18.368 4.32 26.944 0.512 1.696 0.96 3.36 1.568 4.992 3.008 8.448 6.912 16.448 12.096 23.616 0.128 0.192 0.32 0.32 0.448 0.512 5.568 7.552 12.192 14.368 19.712 20.064 0.128 0.064 0.224 0.192 0.32 0.256 7.68 5.728 16.288 10.432 25.536 13.728 10.048 3.584 20.704 5.888 32 5.888s21.952-2.304 32-5.888c9.248-3.328 17.856-8 25.568-13.76 0.096-0.064 0.192-0.192 0.32-0.256 7.52-5.696 14.144-12.512 19.712-20.064 0.128-0.192 0.32-0.32 0.448-0.512 5.152-7.136 9.056-15.136 12.064-23.584 0.608-1.632 1.088-3.296 1.568-4.992 2.56-8.576 4.32-17.504 4.32-26.944 0-9.376-1.76-18.304-4.32-26.88zM960 767.328v96.672c0 52.928-43.072 96-96 96s-96-43.072-96-96v-96.672c-38.688-29.28-64-75.136-64-127.328s25.312-98.048 64-127.264v-480.736c0-52.928 43.072-96 96-96s96 43.072 96 96v480.736c38.624 29.184 64 75.072 64 127.264s-25.376 98.048-64 127.328zM832 864c0 17.696 14.304 32 32 32s32-14.304 32-32v-67.2c-10.368 2.080-21.056 3.2-32 3.2-11.008 0-21.696-1.12-32-3.2v67.2zM896 32c0-17.696-14.304-32-32-32s-32 14.304-32 32v451.264c10.304-2.144 20.992-3.264 32-3.264 10.944 0 21.632 1.12 32 3.264v-451.264zM955.68 613.12c-0.512-1.696-0.992-3.36-1.568-5.056-3.072-8.448-6.944-16.448-12.128-23.552-0.128-0.192-0.32-0.32-0.448-0.512-5.568-7.616-12.192-14.368-19.68-20.064-0.128-0.128-0.256-0.192-0.32-0.256-7.744-5.824-16.32-10.496-25.568-13.76-10.016-3.616-20.704-5.92-31.968-5.92-11.328 0-21.952 2.304-32 5.952-9.248 3.264-17.888 7.936-25.568 13.76-0.128 0.064-0.192 0.128-0.32 0.256-7.552 5.696-14.176 12.448-19.744 20.064-0.128 0.192-0.32 0.32-0.448 0.512-5.12 7.136-9.056 15.136-12.064 23.552-0.64 1.696-1.056 3.36-1.568 5.056-2.528 8.544-4.288 17.472-4.288 26.848 0 9.44 1.76 18.368 4.32 26.944 0.512 1.696 0.928 3.36 1.568 4.992 3.008 8.448 6.944 16.448 12.064 23.616 0.128 0.192 0.32 0.32 0.448 0.512 5.568 7.552 12.192 14.368 19.744 20.064 0.128 0.064 0.192 0.192 0.32 0.256 7.68 5.76 16.32 10.432 25.568 13.76 10.016 3.552 20.64 5.856 31.968 5.856 11.264 0 21.952-2.304 32-5.888 9.248-3.328 17.824-8 25.568-13.76 0.064-0.064 0.192-0.192 0.32-0.256 7.488-5.696 14.112-12.512 19.68-20.064 0.128-0.192 0.32-0.32 0.448-0.512 5.184-7.2 9.056-15.2 12.128-23.616 0.576-1.632 1.056-3.328 1.568-4.992 2.528-8.544 4.288-17.472 4.288-26.912 0-9.376-1.76-18.304-4.32-26.88zM608 383.328v480.672c0 52.928-43.072 96-96 96s-96-43.072-96-96v-480.672c-38.656-29.248-64-75.136-64-127.328s25.344-98.048 64-127.264v-96.736c0-52.928 43.072-96 96-96s96 43.072 96 96v96.736c38.624 29.184 64 75.072 64 127.264s-25.376 98.048-64 127.328zM480 864c0 17.696 14.304 32 32 32s32-14.304 32-32v-451.2c-10.368 2.048-21.056 3.2-32 3.2-10.976 0-21.664-1.12-32-3.2v451.2zM544 32c0-17.696-14.304-32-32-32s-32 14.304-32 32v67.264c10.336-2.144 21.024-3.264 32-3.264 10.944 0 21.632 1.12 32 3.264v-67.264zM603.68 229.12c-0.512-1.696-0.992-3.36-1.568-5.056-3.072-8.448-6.944-16.448-12.128-23.552-0.128-0.192-0.32-0.32-0.448-0.512-5.568-7.616-12.192-14.368-19.68-20.064-0.128-0.128-0.256-0.192-0.32-0.256-7.744-5.824-16.32-10.496-25.568-13.76-10.016-3.616-20.704-5.92-31.968-5.92-11.296 0-21.952 2.304-32 5.952-9.248 3.264-17.856 7.936-25.568 13.76-0.096 0.064-0.192 0.128-0.32 0.256-7.52 5.696-14.144 12.448-19.712 20.064-0.128 0.192-0.32 0.32-0.448 0.512-5.152 7.136-9.056 15.136-12.096 23.552-0.608 1.696-1.056 3.36-1.568 5.056-2.528 8.544-4.288 17.472-4.288 26.848 0 9.44 1.76 18.368 4.32 26.944 0.512 1.696 0.96 3.36 1.568 4.992 3.040 8.448 6.944 16.448 12.096 23.616 0.128 0.192 0.32 0.32 0.448 0.512 5.568 7.552 12.192 14.368 19.712 20.064 0.128 0.064 0.224 0.192 0.32 0.256 7.712 5.76 16.32 10.432 25.568 13.76 10.016 3.552 20.672 5.856 31.968 5.856 11.264 0 21.952-2.304 32-5.888 9.248-3.328 17.824-8 25.568-13.76 0.064-0.064 0.192-0.192 0.32-0.256 7.488-5.696 14.112-12.512 19.68-20.064 0.128-0.192 0.32-0.32 0.448-0.512 5.184-7.2 9.056-15.2 12.128-23.616 0.576-1.632 1.056-3.328 1.568-4.992 2.528-8.544 4.288-17.472 4.288-26.912 0-9.376-1.76-18.304-4.32-26.88z" />
<glyph unicode="&#xe902;" glyph-name="banknote" d="M1005.28 621.248l-320 320c-15.872 15.872-38.88 22.24-60.672 16.864-11.488-2.816-21.76-8.736-29.888-16.864-7.264-7.264-12.736-16.256-15.872-26.304-14.496-47.008-39.552-87.872-76.64-124.928-49.536-49.504-114.048-87.008-182.304-126.656-72.448-41.984-147.296-85.504-208.64-146.816-52.128-52.192-87.616-110.24-108.416-177.632-7.008-22.752-0.896-47.36 15.872-64.192l320-320c15.872-15.872 38.88-22.24 60.672-16.864 11.488 2.88 21.76 8.736 29.888 16.864 7.264 7.264 12.736 16.256 15.872 26.368 14.528 47.008 39.584 87.872 76.704 124.928 49.504 49.504 113.984 86.944 182.304 126.56 72.384 42.048 147.264 85.568 208.576 146.88 52.128 52.128 87.616 110.24 108.448 177.632 6.976 22.72 0.832 47.424-15.904 64.16zM384 0c-105.984 105.984-214.016 214.048-320 320 90.944 294.432 485.12 281.568 576 576 105.984-105.952 214.048-214.016 320.064-320-90.976-294.368-485.152-281.568-576.064-576zM625.984 483.2c-10.432 8.736-20.928 14.688-31.488 17.632-10.496 2.944-20.992 4.128-31.616 3.36-10.496-0.8-21.248-3.2-32-7.328-10.752-4.192-21.568-8.736-32.448-14.016-17.184 19.744-34.368 39.264-51.552 57.376 7.744 7.008 15.264 10.56 22.496 10.816 7.264 0.32 14.24-0.448 20.864-2.112 6.752-1.696 12.928-3.136 18.624-4.256 5.76-1.12 10.752 0.128 15.136 3.808 4.64 4 7.2 9.184 7.552 15.424 0.32 6.304-2.048 12.448-7.328 18.432-6.752 7.744-14.88 12.448-24.64 14.176-9.632 1.696-19.488 1.568-29.76-0.672-10.112-2.304-19.744-6.112-28.864-11.488s-16.448-10.88-21.888-16.256c-2.080 1.984-4.16 3.936-6.24 5.888-2.304 2.112-5.184 3.264-8.64 3.2-3.488 0-6.368-1.504-8.736-4.256-2.304-2.688-3.36-5.824-2.944-9.12 0.32-3.424 1.696-6.048 4.064-8.064 2.080-1.76 4.16-3.488 6.24-5.312-8.192-9.888-14.944-20.8-20.256-32.32-5.376-11.552-8.576-23.008-9.76-34.112-1.248-11.2-0.064-21.44 3.36-30.944 3.424-9.568 9.76-17.696 19.008-25.376 15.072-12.512 32.8-17.824 53.376-16.64 20.512 1.248 42.624 7.36 66.4 20.128 18.88-21.824 37.824-43.488 56.736-63.616-8-6.752-15.008-10.624-21.184-11.872-6.176-1.312-11.68-1.184-16.672 0.32-4.992 1.568-9.632 3.808-13.888 6.688-4.256 2.944-8.448 5.44-12.64 7.488-4.128 2.048-8.384 3.2-12.736 3.264s-8.992-2.048-14.112-6.432c-5.248-4.576-7.872-9.888-7.872-15.872 0-5.952 2.752-12 8.128-18.112 5.44-6.112 12.512-11.264 21.056-15.328s18.208-6.624 28.832-7.328c10.624-0.736 21.824 0.864 33.632 5.248 11.872 4.32 23.616 12.128 35.2 23.744 5.568-5.44 11.2-10.624 16.8-15.616 2.368-2.048 5.248-3.072 8.736-2.816 3.36 0.128 6.304 1.696 8.64 4.512 2.368 2.88 3.36 6.048 3.008 9.376-0.32 3.36-1.696 5.952-4 7.808-5.632 4.512-11.264 9.248-16.864 14.24 9.568 11.744 17.248 24.128 22.944 36.384 5.696 12.32 9.056 24.192 10.176 35.2 1.12 11.072-0.192 21.056-3.808 30.112-3.584 9.184-9.952 17.056-19.072 24.64zM447.072 461.504c-9.056-0.384-16.96 2.624-23.872 9.312-2.944 2.816-4.992 6.24-6.24 10.304-1.312 4.064-1.76 8.512-1.248 13.376 0.448 4.8 1.888 9.824 4.384 14.88 2.368 5.056 5.888 10.112 10.368 15.008 16.224-16.128 32.416-33.824 48.64-52.128-12.288-6.752-22.976-10.368-32.032-10.752zM598.016 397.44c-2.88-5.312-6.176-10.048-10.048-14.176-17.952 18.112-35.872 38.016-53.76 58.432 4.576 2.048 9.376 4.192 14.56 6.368s10.368 3.616 15.552 4.512c5.312 0.8 10.56 0.576 15.808-0.672 5.184-1.312 10.112-4.128 14.688-8.576 4.512-4.512 7.36-9.184 8.512-14.24 1.248-5.12 1.312-10.304 0.448-15.616-0.928-5.344-2.816-10.656-5.76-16.032zM470.944 250.24c6.304 5.088 15.584 4.832 21.376-1.056 6.272-6.24 6.272-16.448 0-22.688-0.512-0.512-1.056-0.864-1.632-1.312l0.064-0.064c-20.256-15.392-36.896-29.248-54.848-47.2-16.224-16.192-30.88-33.248-43.552-50.56l-20.448-28c-0.64-1.152-1.408-2.208-2.368-3.2-6.272-6.24-16.48-6.24-22.72 0-5.44 5.44-6.112 13.824-2.112 20.064l-0.064 0.064 21.888 29.888c13.664 18.688 29.376 36.992 46.752 54.368 18.080 18.144 37.6 34.336 57.6 49.696h0.064zM588.096 713.12c16.192 16.192 30.816 33.184 43.52 50.592l21.248 29.12c0.768 1.376 1.632 2.752 2.816 3.936 6.304 6.304 16.512 6.304 22.816 0 5.984-6.016 6.24-15.52 0.8-21.888l0.064-0.064-21.888-30.016c-13.696-18.688-29.376-36.928-46.752-54.304-18.080-18.080-37.568-34.336-57.568-49.696l-0.128 0.064c-6.368-5.856-16.256-5.728-22.368 0.448-6.304 6.304-6.304 16.576 0 22.88 1.12 1.184 2.432 2.016 3.744 2.752 18.816 14.368 36.96 29.44 53.696 46.176z" />
<glyph unicode="&#xe903;" glyph-name="lab" d="M661.824 840.576c-15.136 15.104-35.2 23.424-56.576 23.424s-41.44-8.32-56.64-23.456l-45.12-45.184c-15.136-15.104-23.488-35.2-23.488-56.608 0-15.072 4.128-29.504 11.872-42.016l-434.464-174.048c-29.056-12.768-49.888-38.976-55.744-70.048-5.92-31.264 4-63.328 26.688-85.984l407.040-402.56c17.536-17.536 40.832-27.488 65.44-28.064 0.576-0.032 1.92-0.032 2.496-0.032 6.464 0 13.024 0.672 19.52 1.984 31.808 6.592 57.856 28.576 69.664 58.496l170.944 428.032c12.864-8.48 28-13.024 43.744-13.024 21.44 0 41.504 8.352 56.576 23.456l45.024 45.056c15.264 15.168 23.616 35.296 23.616 56.736s-8.384 41.6-23.424 56.576l-247.168 247.264zM533.088 20.256c-3.968-10.016-12.704-17.408-23.264-19.584-2.432-0.512-4.896-0.704-7.328-0.672-8.128 0.192-15.968 3.456-21.824 9.344l-407.296 402.816c-7.488 7.456-10.784 18.144-8.8 28.576 1.952 10.368 8.928 19.136 18.624 23.36l198.944 79.68c134.048-44.576 268.128-1.632 402.24-144.704l-151.296-378.816zM863.744 525.44l-45.248-45.216c-6.24-6.272-16.384-6.272-22.624 0l-56.576 56.544-45.824-114.848 3.808 9.696c-96.32 96.16-194.208 108.288-282.528 119.136-28.384 3.488-55.904 7.136-82.944 12.96l271.712 108.832-54.88 54.88c-6.24 6.24-6.24 16.384 0 22.624l45.248 45.28c6.24 6.24 16.384 6.24 22.624 0l247.2-247.264c6.336-6.24 6.336-16.384 0.032-22.624zM528 288c44.096 0 80 35.872 80 80s-35.872 80-80 80c-44.128 0-80-35.872-80-80s35.904-80 80-80zM528 416c26.496 0 48-21.504 48-48s-21.504-48-48-48c-26.528 0-48 21.504-48 48s21.472 48 48 48zM944 960c-44.128 0-80-35.872-80-80s35.872-80 80-80 80 35.872 80 80-35.872 80-80 80zM944 832c-26.496 0-48 21.504-48 48s21.504 48 48 48 48-21.504 48-48-21.504-48-48-48zM256 416c0-35.296 28.704-64 64-64s64 28.704 64 64-28.704 64-64 64-64-28.704-64-64zM320 448c17.664 0 32-14.304 32-32s-14.336-32-32-32-32 14.304-32 32 14.336 32 32 32zM384 224c0 17.673 14.327 32 32 32s32-14.327 32-32c0-17.673-14.327-32-32-32s-32 14.327-32 32zM896 704c0 17.673 14.327 32 32 32s32-14.327 32-32c0-17.673-14.327-32-32-32s-32 14.327-32 32z" />
<glyph unicode="&#xe904;" glyph-name="clip" d="M939.616 811.616c112.512-112.448 112.512-294.816 0-407.264l-350.944-350.976c-12.512-12.544-32.736-12.544-45.248 0-12.576 12.512-12.576 32.704 0 45.248l346.432 346.464c87.488 87.488 87.488 229.248-0.064 316.768-87.36 87.488-229.248 87.488-316.736 0l-462.304-456.864c-62.496-62.464-62.496-163.776 0-226.24 62.496-62.496 163.744-62.496 226.24 0l466.88 461.344c37.44 37.44 37.44 98.336 0 135.776-37.44 37.408-98.304 37.408-135.744 0l-351.008-351.008c-12.512-12.512-32.736-12.512-45.248 0-12.512 12.544-12.512 32.736 0 45.28l350.976 350.976c62.432 62.464 163.744 62.464 226.24 0 62.496-62.496 62.496-163.776 0-226.272l-466.88-461.376c-87.296-87.328-229.408-87.328-316.736 0s-87.328 229.472 0 316.8l466.88 461.344c112.448 112.512 294.816 112.512 407.264 0z" />
<glyph unicode="&#xe905;" glyph-name="calendar" d="M938.688 864h-138.688v64c0 17.696-14.304 32-32 32s-32-14.304-32-32v-64h-192v64c0 17.696-14.336 32-32 32s-32-14.304-32-32v-64h-192v64c0 17.696-14.336 32-32 32s-32-14.304-32-32v-64h-138.656c-47.136 0-85.344-38.176-85.344-85.312v-757.344c0-47.136 38.208-85.344 85.344-85.344h853.344c47.136 0 85.312 38.208 85.312 85.344v757.344c0 47.136-38.176 85.312-85.312 85.312zM960 21.344c0-11.776-9.568-21.344-21.312-21.344h-853.344c-11.776 0-21.344 9.568-21.344 21.344v757.344c0 11.744 9.568 21.312 21.344 21.312h138.656v-64c0-17.696 14.336-32 32-32s32 14.304 32 32v64h192v-64c0-17.696 14.336-32 32-32s32 14.304 32 32v64h192v-64c0-17.696 14.304-32 32-32s32 14.304 32 32v64h138.688c11.744 0 21.312-9.568 21.312-21.312v-757.344zM224 576h128v-96h-128zM224 416h128v-96h-128zM224 256h128v-96h-128zM448 256h128v-96h-128zM448 416h128v-96h-128zM448 576h128v-96h-128zM672 256h128v-96h-128zM672 416h128v-96h-128zM672 576h128v-96h-128z" />
<glyph unicode="&#xe906;" glyph-name="wallet" d="M512 320c0 35.346 28.654 64 64 64s64-28.654 64-64c0-35.346-28.654-64-64-64s-64 28.654-64 64zM928.032 544c-0.032 0-0.032 0 0 0l-0.032 192v96c0 53.024-43.008 96-96 96h-656c-97.056 0-176-78.976-176-176v-640c0-97.024 78.944-176 176-176h576c97.024 0 176 78.976 176 176v48c0 0 0 0 0.032 0 127.936 96.032 127.936 287.968 0 384zM176 864h656c17.632 0 32-14.336 32-32v-197.888c-10.048 3.584-20.736 5.888-32 5.888h-0.032v160c0 17.696-14.336 32-32 32h-672c-17.664 0-32-14.304-32-32v-126.176c-19.744 20.192-31.968 47.712-31.968 78.176 0 61.856 50.112 112 112 112zM799.968 768h-672v32h672v-32zM799.968 736v-32h-672v32h672zM799.968 672v-32h-623.968c-17.28 0-33.408 4.224-48 11.2v20.8h671.968zM864 112c0-61.856-50.144-112-112-112h-576c-61.888 0-112 50.144-112 112v504.352c30.432-25.184 69.472-40.352 112-40.352h656c17.632 0 32-14.336 32-32v-64h-288c-88.384 0-160-71.616-160-160s71.648-160 160-160h288v-48zM904.864 224h-328.864c-52.928 0-96 43.072-96 96s43.072 96 96 96h288c19.744 0.256 39.328 9.824 51.264 25.728 3.328 4.48 5.92 9.504 8 14.752 0.288 0.704 0.8 1.248 1.056 1.984 23.008-30.176 35.68-67.168 35.68-106.464 0-49.216-19.872-94.88-55.136-128z" />
<glyph unicode="&#xe907;" glyph-name="truck" d="M794.624 593.76c-5.952 8.896-15.936 14.24-26.624 14.24h-32c-17.696 0-32-14.304-32-32v-192c0-17.696 14.304-32 32-32h128c17.696 0 32 14.304 32 32v48c0 6.304-1.888 12.512-5.376 17.76l-96 144zM864 384h-128v192h32l96-144v-48zM1007.872 469.248l-128 192c-17.856 26.784-47.744 42.752-79.872 42.752h-128v64c0 52.928-43.072 96-96 96h-480c-52.928 0-96-43.072-96-96v-352c0-52.928 43.072-96 96-96v0-96c0-52.928 43.072-96 96-96h36.544c14.304-55.072 64-96 123.488-96 59.424 0 109.12 40.928 123.424 96h169.024c14.304-55.072 64-96 123.488-96 59.424 0 109.12 40.928 123.424 96h36.608c52.928 0 96 43.072 96 96v192c0 19.008-5.568 37.44-16.128 53.248zM96 384c-17.664 0-32 14.304-32 32v352c0 17.696 14.336 32 32 32h480c17.696 0 32-14.304 32-32v-352c0-17.696-14.304-32-32-32h-480zM352.032 96c-35.36 0-64 28.672-64 64s28.64 64 64 64c35.328 0 64-28.672 64-64s-28.704-64-64-64zM768 96c-35.36 0-64 28.672-64 64s28.64 64 64 64c35.328 0 64-28.672 64-64s-28.672-64-64-64zM960 224c0-17.696-14.304-32-32-32h-36.576c-14.304 55.072-64 96-123.424 96-59.488 0-109.184-40.928-123.488-96h-169.024c-14.304 55.072-64 96-123.424 96-59.488 0-109.184-40.928-123.488-96h-36.576c-17.664 0-32 14.304-32 32v96h416c52.928 0 96 43.072 96 96v224h128c10.688 0 20.672-5.344 26.624-14.24l128-192c3.488-5.248 5.376-11.456 5.376-17.76v-192z" />
<glyph unicode="&#xe908;" glyph-name="close" d="M653.168 448l177.984 177.992c27.84 27.84 27.792 73.048-0.152 100.984l-40.048 40.040c-27.912 27.92-73.136 27.992-100.976 0.152l-177.976-178-177.976 177.984c-27.872 27.864-73.064 27.776-100.992-0.144l-40.040-40.040c-27.928-27.936-28.008-73.12-0.144-100.984l177.984-177.984-177.968-177.968c-27.864-27.872-27.776-73.064 0.144-100.984l40.040-40.048c27.936-27.936 73.12-28.016 100.984-0.144l177.968 177.968 177.976-177.968c27.84-27.848 73.048-27.8 100.976 0.152l40.048 40.048c27.912 27.912 27.984 73.136 0.152 100.976l-177.984 177.968z" />
<glyph unicode="&#xe909;" glyph-name="cancel" d="M512.003 959.997c-282.32 0-512.003-229.68-512.003-511.997s229.683-511.997 512.003-511.997c282.317 0 511.997 229.68 511.997 511.997s-229.68 511.997-511.997 511.997zM512.003 19.937c-236.039 0-428.069 192.024-428.069 428.063 0 236.035 192.031 428.063 428.069 428.063 236.035 0 428.063-192.027 428.063-428.063 0-236.039-192.027-428.063-428.063-428.063zM571.355 448.003l144.803 144.799c16.391 16.391 16.391 42.961 0 59.351-16.387 16.391-42.961 16.387-59.351 0l-144.803-144.803-144.806 144.806c-16.391 16.387-42.961 16.387-59.351 0-16.387-16.391-16.387-42.961 0-59.351l144.803-144.803-144.806-144.806c-16.387-16.391-16.387-42.961 0-59.355 8.195-8.192 18.935-12.288 29.676-12.288s21.48 4.099 29.676 12.288l144.806 144.809 144.806-144.809c8.195-8.189 18.935-12.288 29.676-12.288s21.48 4.099 29.676 12.288c16.391 16.394 16.391 42.964 0 59.355l-144.803 144.806z" />
<glyph unicode="&#xe90a;" glyph-name="check" d="M512.003 959.997c-282.32 0-512.003-229.68-512.003-511.997s229.683-511.997 512.003-511.997c282.317 0 511.997 229.68 511.997 511.997s-229.68 511.997-511.997 511.997zM512.003 19.937c-236.039 0-428.069 192.024-428.069 428.063 0 236.035 192.031 428.063 428.069 428.063 236.035 0 428.063-192.027 428.063-428.063 0-236.039-192.027-428.063-428.063-428.063zM733.491 644.509l-303.995-303.998-138.988 138.988c-16.391 16.387-42.961 16.387-59.351 0-16.387-16.391-16.387-42.961 0-59.351l168.663-168.663c8.195-8.192 18.935-12.291 29.676-12.291s21.48 4.099 29.676 12.291l333.671 333.671c16.387 16.391 16.387 42.961 0 59.351-16.391 16.391-42.964 16.391-59.351 0.003z" />
<glyph unicode="&#xe90b;" glyph-name="icon-check" d="M362.906 92.16v0c-14.131 0-27.648 5.632-37.478 15.77l-300.032 304.538c-20.378 20.685-20.173 53.965 0.614 74.342 20.48 20.48 53.965 20.173 74.445-0.512l262.554-266.547 560.845 568.422c20.48 20.685 53.76 20.89 74.445 0.512s20.787-53.76 0.41-74.445l-598.323-606.413c-9.933-10.035-23.45-15.667-37.478-15.667z" />
<glyph unicode="&#xe90c;" glyph-name="caret-down" d="M512 307.61c-4.608 0-9.216 1.741-12.698 5.222l-244.941 244.941c-6.963 6.963-6.963 18.33 0 25.293s18.33 6.963 25.293 0l232.346-232.243 232.243 232.346c6.963 6.963 18.33 6.963 25.293 0s6.963-18.33 0-25.293l-244.838-245.043c-3.482-3.482-8.090-5.222-12.698-5.222z" />
<glyph unicode="&#xe90d;" glyph-name="back" d="M311.568 448.027l462.455 462.455c11.374 11.374 11.374 29.614 0 40.988s-29.614 11.374-40.988 0l-483.056-483.056c-11.374-11.374-11.374-29.614 0-40.988l483.056-482.842c5.58-5.58 13.090-8.584 20.387-8.584s14.807 2.79 20.387 8.584c11.374 11.374 11.374 29.614 0 40.988l-462.24 462.455z" />
<glyph unicode="&#xe90e;" glyph-name="next" d="M774.115 468.413l-483.056 483.056c-11.374 11.374-29.614 11.374-40.988 0s-11.374-29.614 0-40.988l462.455-462.455-462.455-462.455c-11.374-11.374-11.374-29.614 0-40.988 5.58-5.58 13.090-8.584 20.387-8.584s14.807 2.79 20.387 8.584l483.056 483.056c11.374 11.159 11.374 29.614 0.215 40.773z" />
<glyph unicode="&#xe90f;" glyph-name="icon-add" d="M942.080 519.68h-358.4v358.4c0 39.629-32.051 71.68-71.68 71.68-39.526 0-71.68-32.051-71.68-71.68v-358.4h-358.4c-39.526 0-71.68-32.051-71.68-71.68s32.154-71.68 71.68-71.68h358.4v-358.4c0-39.526 32.154-71.68 71.68-71.68 39.629 0 71.68 32.154 71.68 71.68v358.4h358.4c39.629 0 71.68 32.051 71.68 71.68s-32.051 71.68-71.68 71.68z" />
<glyph unicode="&#xe910;" glyph-name="gift" d="M877.723 709.206h-37.722c11.456 16.165 19.899 34.495 24.731 54.328 10.043 41.225 3.428 83.896-18.626 120.147-29.070 47.787-79.847 76.319-135.83 76.319-29.025 0-57.532-8.006-82.43-23.151-42.25-25.695-86.379-106.169-115.845-168.837-29.466 62.668-73.594 143.139-115.845 168.834-24.901 15.148-53.405 23.154-82.433 23.154-55.986 0-106.76-28.532-135.83-76.319-22.056-36.251-28.669-78.922-18.628-120.147 4.832-19.832 13.273-38.162 24.731-54.328h-37.722c-19.236 0-34.832-15.597-34.832-34.832v-703.541c0-19.233 15.597-34.832 34.832-34.832h731.449c19.236 0 34.832 15.599 34.832 34.832v703.541c0 19.239-15.594 34.832-34.832 34.832zM664.049 877.327c13.986 8.51 29.973 13.008 46.227 13.008 31.461 0 59.987-16.023 76.314-42.861 12.381-20.353 16.095-44.307 10.458-67.452s-19.952-42.707-40.311-55.091c-5.403-3.288-27.22-13.2-94.499-15.318 15.914 11.737 29.151 25.431 38.828 40.726 10.283 16.257 5.439 37.775-10.82 48.058-16.249 10.28-37.772 5.439-48.058-10.818-10.536-16.658-32.818-33.411-64.348-43.61 28.713 59.97 63.019 119.258 86.209 133.358zM237.41 847.477c16.321 26.838 44.853 42.858 76.314 42.858 16.254 0 32.238-4.498 46.23-13.008 23.151-14.078 57.46-73.368 86.187-133.35-31.519 10.199-53.795 26.946-64.326 43.602-10.283 16.257-31.798 21.1-48.058 10.82-16.257-10.283-21.103-31.798-10.82-48.058 9.675-15.296 22.914-28.989 38.828-40.726-67.285 2.121-89.096 12.030-94.505 15.321-20.353 12.378-34.665 31.943-40.305 55.088s-1.926 47.099 10.455 67.452zM181.107 639.541h296.059v-633.876h-296.059v633.876zM842.891 5.665h-296.059v633.876h296.059v-633.876z" />
<glyph unicode="&#xe911;" glyph-name="kolba" d="M918.232-15.22l-241.411 589.357v350.493c0 19.533-15.835 35.37-35.37 35.37h-258.898c-19.536 0-35.37-15.837-35.37-35.37v-350.496l-241.414-589.355c-4.468-10.905-3.209-23.327 3.362-33.115 6.568-9.788 17.583-15.662 29.371-15.662h747.001c11.788 0 22.804 5.874 29.371 15.662 6.568 9.785 7.827 22.204 3.359 33.115zM415.28 553.764c1.743 4.256 2.64 8.809 2.64 13.407v322.089h188.158v-322.089c0-4.598 0.894-9.151 2.64-13.407l44.176-107.845h-281.79l44.176 107.845zM191.208 6.74l150.917 368.438h339.74l150.917-368.438h-641.575z" />
<glyph unicode="&#xe912;" glyph-name="add" d="M512.003 959.997c-282.317 0-512.003-229.68-512.003-511.997s229.687-511.997 512.003-511.997c282.32 0 511.997 229.68 511.997 511.997s-229.677 511.997-511.997 511.997zM512.003 19.937c-236.035 0-428.069 192.024-428.069 428.063 0 236.035 192.034 428.063 428.069 428.063 236.039 0 428.063-192.027 428.063-428.063 0-236.039-192.024-428.063-428.063-428.063zM758.759 489.967h-204.789v204.785c0 23.176-18.788 41.967-41.967 41.967-23.172 0-41.967-18.791-41.967-41.967v-204.785h-204.782c-23.176 0-41.967-18.791-41.967-41.967 0-23.172 18.791-41.967 41.967-41.967h204.782v-204.785c0-23.172 18.794-41.967 41.967-41.967 23.179 0 41.967 18.794 41.967 41.967v204.785h204.789c23.176 0 41.967 18.794 41.967 41.967 0 23.176-18.791 41.967-41.967 41.967z" />
<glyph unicode="&#xe913;" glyph-name="arrow-left" d="M976.387 495.615h-813.82l223.435 223.443c18.596 18.596 18.596 48.741 0 67.336-18.6 18.592-48.744 18.592-67.336 0l-304.717-304.724c-18.6-18.596-18.6-48.741 0-67.336l304.724-304.724c9.29-9.29 21.483-13.945 33.668-13.945s24.367 4.655 33.668 13.945c18.596 18.596 18.596 48.741 0 67.336l-223.443 223.443h813.82c26.294 0 47.613 21.323 47.613 47.613 0 26.294-21.319 47.613-47.613 47.613z" />
<glyph unicode="&#xe914;" glyph-name="arrow-right" d="M1010.055 481.668l-304.726 304.726c-18.592 18.592-48.745 18.592-67.337 0-18.596-18.596-18.596-48.741 0-67.337l223.444-223.444h-813.823c-26.294 0-47.613-21.319-47.613-47.613 0-26.29 21.319-47.613 47.613-47.613h813.823l-223.436-223.444c-18.596-18.596-18.596-48.741 0-67.337 9.294-9.29 21.483-13.945 33.668-13.945s24.37 4.655 33.668 13.945l304.718 304.726c18.596 18.596 18.596 48.741 0 67.337z" />
<glyph unicode="&#xe915;" glyph-name="arrow-up" d="M850.394 641.337l-304.726 304.718c-18.592 18.592-48.745 18.592-67.337 0l-304.726-304.726c-18.6-18.596-18.6-48.741 0-67.337 9.29-9.294 21.483-13.945 33.668-13.945s24.367 4.651 33.668 13.945l223.444 223.444v-813.823c0-26.294 21.319-47.613 47.613-47.613 26.286 0 47.613 21.319 47.613 47.613v813.827l223.444-223.436c18.6-18.592 48.745-18.592 67.337 0 18.596 18.592 18.596 48.737 0 67.333z" />
<glyph unicode="&#xe916;" glyph-name="arrow-down" d="M850.394 322.007c-18.592 18.596-48.745 18.596-67.337 0l-223.444-223.444v813.823c0 26.294-21.323 47.613-47.613 47.613-26.298 0-47.613-21.319-47.613-47.613v-813.823l-223.444 223.436c-18.6 18.592-48.745 18.592-67.337 0-18.6-18.596-18.6-48.741 0-67.337l304.726-304.718c9.29-9.294 21.483-13.945 33.668-13.945s24.367 4.651 33.668 13.945l304.726 304.726c18.596 18.596 18.596 48.741 0 67.337z" />
<glyph unicode="&#xe917;" glyph-name="bookmark" d="M875.128-64c-11.11 0-21.938 4.827-29.387 13.653l-333.743 395.702-333.743-395.702c-10.403-12.34-27.41-16.85-42.563-11.323-15.156 5.54-25.24 19.958-25.24 36.095v947.146c0 21.222 17.207 38.428 38.428 38.428h726.235c21.219 0 38.428-17.207 38.428-38.428v-947.14c0-16.137-10.084-30.555-25.24-36.095-4.31-1.574-8.768-2.336-13.176-2.336zM511.998 443.39c11.326 0 22.073-4.996 29.375-13.653l295.318-350.138v803.544h-649.382v-803.544l295.315 350.138c7.301 8.657 18.049 13.653 29.375 13.653z" />
<glyph unicode="&#xe918;" glyph-name="caution" d="M1019.608 32.046l-476.55 866.086c-6.23 11.323-18.134 18.358-31.056 18.358-12.925 0-24.823-7.035-31.056-18.358l-476.553-866.086c-6.043-10.98-5.836-24.336 0.542-35.128 6.377-10.79 17.978-17.408 30.512-17.408h953.109c12.536 0 24.137 6.618 30.514 17.408 6.377 10.792 6.582 24.148 0.539 35.128zM95.408 50.404l416.593 757.115 416.593-757.115h-833.187zM467.581 554.262v-256.203c0-24.528 19.889-44.42 44.42-44.42 24.528 0 44.42 19.892 44.42 44.42v256.203c0 24.531-19.892 44.42-44.42 44.42-24.531 0-44.42-19.892-44.42-44.42zM512.001 207.522c-25.796 0-46.788-20.981-46.788-46.788 0-25.799 20.992-46.788 46.788-46.788s46.788 20.989 46.788 46.788c0 25.804-20.995 46.788-46.788 46.788z" />
<glyph unicode="&#xe919;" glyph-name="links" d="M970.768 877.615l-29.152 29.155c-34.327 34.327-79.966 53.23-128.507 53.23-48.547 0-94.178-18.906-128.507-53.232l-211.585-211.582c-34.327-34.329-53.227-79.966-53.227-128.51 0-9.725 0.792-19.325 2.281-28.749-9.421 1.488-19.027 2.281-28.749 2.281-48.547 0-94.186-18.906-128.513-53.23l-211.576-211.585c-70.857-70.86-70.857-186.16-0.006-257.011l29.15-29.155c34.332-34.332 79.971-53.227 128.513-53.227 48.547 0 94.18 18.903 128.501 53.227l211.585 211.585c42.759 42.754 59.671 101.691 50.827 157.281 9.465-1.502 19.102-2.306 28.868-2.306h0.017c48.541 0 94.172 18.908 128.493 53.227l211.587 211.59c70.857 70.862 70.857 186.157 0 257.011zM502.163 249.623l-211.585-211.585c-21.286-21.286-49.588-33.010-79.69-33.010-30.108 0-58.41 11.724-79.695 33.010l-29.15 29.15c-43.947 43.947-43.947 115.45 0 159.399l211.579 211.585c21.291 21.286 49.593 33.010 79.701 33.010 30.102 0 58.41-11.724 79.695-33.010l29.15-29.15c43.944-43.949 43.944-115.455-0.006-159.399zM921.956 669.413l-211.59-211.585c-21.286-21.291-49.577-33.012-79.676-33.012h-0.011c-30.108 0.003-58.415 11.724-79.695 33.007l-29.144 29.152c-21.291 21.289-33.018 49.593-33.018 79.698s11.724 58.41 33.012 79.698l211.585 211.585c21.291 21.289 49.593 33.012 79.693 33.012 30.102 0 58.41-11.724 79.695-33.012l29.15-29.152c43.947-43.941 43.941-115.444 0-159.391zM778.296 763.107l-161.613-161.613c-13.477-13.48-13.477-35.335 0-48.812 6.74-6.74 15.576-10.109 24.409-10.109s17.666 3.369 24.403 10.109l161.613 161.613c13.483 13.477 13.483 35.332 0 48.812-13.48 13.48-35.337 13.48-48.812 0zM358.5 343.312l-161.613-161.611c-13.477-13.48-13.477-35.332 0-48.814 6.74-6.734 15.576-10.106 24.409-10.106s17.666 3.371 24.403 10.106l161.613 161.613c13.483 13.483 13.483 35.335 0 48.812-13.477 13.483-35.335 13.483-48.812 0z" />
<glyph unicode="&#xe91a;" glyph-name="envelope" d="M989.276 820.222h-954.553c-19.176 0-34.724-15.548-34.724-34.724v-674.994c0-19.173 15.548-34.724 34.724-34.724h954.553c19.173 0 34.724 15.551 34.724 34.724v674.994c0 19.173-15.551 34.724-34.724 34.724zM954.553 145.225h-885.105v605.55h885.105v-605.55zM160.437 587.204l333.347-205.389c5.584-3.442 11.898-5.161 18.215-5.161s12.631 1.72 18.215 5.161l333.347 205.389c16.326 10.059 21.409 31.451 11.35 47.777s-31.457 21.409-47.777 11.348l-315.135-194.163-315.132 194.163c-16.32 10.053-37.713 4.981-47.777-11.348-10.062-16.323-4.981-37.718 11.348-47.777z" />
<glyph unicode="&#xe91b;" glyph-name="cloud" d="M783.509 103.502h-543.013c-132.61 0-240.496 107.886-240.496 240.496 0 89.554 49.184 170.541 127.046 212.117 2.207 130.717 109.225 236.383 240.455 236.383 77.17 0 149.858-37.596 194.804-99.47 10.917 1.503 21.957 2.262 33.015 2.262 82.789 0 158.831-42.159 202.825-111.227 125.826-7.587 225.858-112.361 225.858-240.065 0.003-132.61-107.886-240.496-240.494-240.496zM367.503 727.499c-96.766 0-175.491-78.728-175.491-175.499 0-4.573 0.172-9.16 0.515-13.634 1.063-13.959-6.926-27.032-19.835-32.445-65.421-27.438-107.691-91-107.691-161.922 0-96.772 78.728-175.497 175.497-175.497h543.013c96.769 0 175.497 78.725 175.497 175.497 0 96.774-78.728 175.504-175.497 175.504-1.188 0-2.366-0.026-3.549-0.052-12.342-0.242-23.67 6.43-29.421 17.29-30.537 57.702-90.006 93.545-155.211 93.545-13.772 0-27.495-1.604-40.789-4.768-13.9-3.302-28.324 2.842-35.552 15.161-31.447 53.555-89.489 86.821-151.483 86.821z" />
<glyph unicode="&#xe91c;" glyph-name="compass" d="M512.001 960c-282.318 0-512.001-229.683-512.001-512.004 0-282.318 229.683-511.999 512.001-511.999 282.315 0 511.999 229.681 511.999 511.999 0 282.321-229.683 512.004-511.999 512.004zM547.070 7.516v48.32c0 19.362-15.704 35.065-35.065 35.065s-35.065-15.704-35.065-35.065v-48.32c-215.744 17.022-388.395 189.67-405.414 405.414h48.314c19.364 0 35.065 15.704 35.065 35.065 0 19.364-15.701 35.065-35.065 35.065h-48.317c17.019 215.747 189.67 388.398 405.414 405.417v-48.314c0-19.364 15.701-35.065 35.065-35.065s35.065 15.701 35.065 35.065v48.314c215.744-17.019 388.392-189.67 405.414-405.414h-48.32c-19.362 0-35.065-15.701-35.065-35.065 0-19.362 15.704-35.065 35.065-35.065h48.32c-17.019-215.747-189.667-388.395-405.411-405.417zM610.846 433.577c4.365 30.153-5.033 61.931-28.184 85.085-18.876 18.876-43.969 29.27-70.661 29.27-4.89 0-9.726-0.356-14.478-1.044l-150.060 114.807c-13.967 10.685-33.677 9.372-46.104-3.055-12.43-12.43-13.734-32.139-3.055-46.104l114.849-150.119c-4.362-30.153 5.033-61.931 28.184-85.085 18.876-18.876 43.969-29.273 70.661-29.273 4.892 0 9.723 0.356 14.481 1.046l150.057-114.807c6.329-4.842 13.83-7.215 21.297-7.215 9.030 0 18.010 3.467 24.809 10.267 12.427 12.433 13.734 32.139 3.052 46.107l-114.849 150.119z" />
<glyph unicode="&#xe91d;" glyph-name="trash" d="M844.885 934.431h-233.054c-5.333 14.894-19.536 25.569-36.268 25.569h-127.129c-16.729 0-30.926-10.675-36.265-25.569h-233.054c-58.796 0-106.631-47.835-106.631-106.628v-96.995c0-21.291 17.263-38.554 38.554-38.554h72.509v-717.7c0-21.291 17.263-38.554 38.554-38.554h579.795c21.288 0 38.554 17.263 38.554 38.554v717.697h72.512c21.291 0 38.554 17.263 38.554 38.554v96.995c0 58.796-47.835 106.631-106.631 106.631zM763.345 13.105h-502.687v679.146h502.687v-679.146zM874.408 769.359h-724.813v58.441c0 16.276 13.241 29.52 29.523 29.52h665.764c16.276 0 29.523-13.244 29.523-29.52l0.003-58.441zM410.969 146.134c21.291 0 38.554 17.266 38.554 38.554v406.312c0 21.291-17.263 38.554-38.554 38.554s-38.554-17.263-38.554-38.554v-406.312c0-21.288 17.263-38.554 38.554-38.554zM613.034 146.134c21.291 0 38.554 17.266 38.554 38.554v406.312c0 21.291-17.263 38.554-38.554 38.554-21.288 0-38.554-17.263-38.554-38.554v-406.312c0-21.288 17.263-38.554 38.554-38.554z" />
<glyph unicode="&#xe91e;" glyph-name="edit" d="M1013.131 691.055l-128.97 128.973c-0.024 0.021-0.042 0.047-0.059 0.068-0.024 0.021-0.056 0.042-0.068 0.062l-128.973 128.976c-6.957 6.957-16.393 10.866-26.235 10.866-9.839 0-19.275-3.909-26.235-10.866l-624.574-624.568c-5.126-5.126-8.634-11.635-10.103-18.735l-67.144-325.229c-2.526-12.229 1.273-24.911 10.1-33.735 7.028-7.028 16.497-10.866 26.235-10.866 2.496 0 5.010 0.252 7.5 0.766l325.215 67.153c7.1 1.466 13.609 4.978 18.735 10.1l624.577 624.568c14.49 14.484 14.49 37.977 0 52.467zM126.67 223.434l160.764-160.764-202.591-41.829 41.826 202.594zM362.319 92.722l-205.603 205.606 572.11 572.098 76.565-76.568-346.19-346.199c-14.49-14.49-14.49-37.98 0-52.47 7.242-7.242 16.74-10.866 26.235-10.866s18.99 3.624 26.235 10.866l346.196 346.199 76.565-76.568-572.113-572.098z" />
<glyph unicode="&#xe91f;" glyph-name="eye" d="M512 169.358c-115.15 0-239.080 45.033-358.391 130.235-89.191 63.691-144.241 126.791-146.542 129.45-9.424 10.881-9.424 27.032 0 37.915 2.3 2.655 57.348 65.759 146.542 129.45 119.313 85.195 243.243 130.233 358.391 130.233 115.15 0 239.082-45.036 358.391-130.233 89.191-63.691 144.241-126.793 146.542-129.45 9.424-10.881 9.424-27.032 0-37.915-2.3-2.655-57.348-65.759-146.542-129.45-119.308-85.2-243.238-130.235-358.391-130.235zM68.657 447.998c22.262-22.7 64.277-62.616 119.751-102.092 76.052-54.117 193.926-118.634 323.592-118.634s247.542 64.518 323.592 118.634c55.467 39.469 97.484 79.39 119.751 102.092-22.26 22.7-64.277 62.616-119.751 102.092-76.049 54.119-193.926 118.634-323.592 118.634s-247.54-64.515-323.592-118.634c-55.467-39.469-97.484-79.385-119.751-102.092zM512 268.466c-98.995 0-179.531 80.539-179.531 179.531s80.537 179.531 179.531 179.531c43.537 0 85.536-15.785 118.254-44.45 12.030-10.538 13.239-28.832 2.701-40.861s-28.834-13.237-40.861-2.701c-22.155 19.41-50.602 30.099-80.096 30.099-67.061 0-121.618-54.559-121.618-121.618s54.557-121.618 121.618-121.618c67.064 0 121.618 54.559 121.618 121.618 0 15.991 12.966 28.957 28.957 28.957s28.957-12.966 28.957-28.957c0.005-98.992-80.534-179.531-179.529-179.531zM512 390.084c-31.933 0-57.913 25.98-57.913 57.913s25.98 57.913 57.913 57.913c31.936 0 57.913-25.98 57.913-57.913s-25.978-57.913-57.913-57.913z" />
<glyph unicode="&#xe920;" glyph-name="folder" d="M1016.083 667.034c-5.832 6.472-14.14 10.167-22.852 10.167h-5.775c-7.149 64.547-62.007 114.923-128.43 114.923h-340.875v30.274c0 16.993-13.778 30.771-30.771 30.771h-358.143c-71.26 0-129.238-57.977-129.238-129.238 0-0.913 0.042-1.824 0.123-2.732l49.233-551.867c0.012-0.155 0.030-0.31 0.044-0.463 7.875-75.386 59.745-126.037 129.073-126.037h667.061c66.667 0 117.257 48.894 128.878 124.568 0.076 0.495 0.145 0.995 0.192 1.494l49.233 474.366c0.899 8.663-1.918 17.306-7.754 23.775zM925.189 677.201h-339.341c-32.415 0-59.57 22.908-66.157 53.381h339.341c32.415 0 59.565-22.906 66.157-53.381zM913.471 176.037c-2.841-17.746-15.819-71.664-67.942-71.664h-667.058c-44.477 0-64.195 36.462-67.839 70.665l-49.078 550.139c-2.801 36.765 30.771 66.45 67.684 66.45h327.375v-46.727c0-71.26 57.977-129.238 129.238-129.238h373.251l-45.629-439.624z" />
<glyph unicode="&#xe921;" glyph-name="gear" d="M935.37 380.62c3.519 22.246 5.296 44.823 5.296 67.376 0 22.55-1.777 45.128-5.296 67.376 20.773 18.403 35.598 42.592 42.597 70.015 9.075 35.576 3.965 72.678-14.397 104.481l-16.315 28.256c-24.909 43.14-71.357 69.94-121.217 69.94-14.939 0-29.829-2.439-43.998-7.146-35.269 28.688-74.381 51.299-116.718 67.473-5.559 27.174-19.092 52.088-39.333 71.845-26.268 25.643-60.956 39.765-97.673 39.765h-32.628c-36.717 0-71.404-14.123-97.673-39.762-20.241-19.757-33.777-44.671-39.336-71.842-42.337-16.177-81.449-38.788-116.718-67.476-14.17 4.707-29.056 7.146-44.001 7.146-49.859 0-96.308-26.8-121.217-69.94l-16.307-28.253c-18.361-31.8-23.475-68.904-14.399-104.481 6.996-27.423 21.822-51.615 42.595-70.017-3.519-22.248-5.296-44.826-5.296-67.376s1.777-45.125 5.296-67.376c-20.773-18.4-35.598-42.589-42.597-70.015-9.075-35.579-3.962-72.681 14.397-104.481l16.315-28.253c24.906-43.14 71.355-69.94 121.217-69.94 14.942 0 29.829 2.434 43.998 7.143 35.269-28.685 74.381-51.296 116.718-67.473 5.559-27.171 19.092-52.082 39.333-71.842 26.268-25.643 60.956-39.76 97.67-39.76v0h32.63c36.717 0 71.404 14.12 97.67 39.76 20.244 19.759 33.774 44.671 39.333 71.842 42.337 16.177 81.449 38.788 116.718 67.473 14.167-4.704 29.056-7.143 43.998-7.143 0.003 0 0 0 0.003 0 49.857 0 96.305 26.8 121.214 69.94l16.31 28.253c18.364 31.8 23.475 68.907 14.399 104.481-6.991 27.42-21.819 51.609-42.589 70.012zM863.591 523.016c5.213-24.568 7.857-49.809 7.857-75.020s-2.644-50.452-7.857-75.020c-3.045-14.338 3.275-29.034 15.773-36.692 32.902-20.158 43.555-62.13 24.261-95.56l-16.312-28.251c-12.583-21.794-36.058-35.33-61.271-35.33-11.686 0-23.322 2.968-33.652 8.591-12.899 7.016-28.815 5.13-39.718-4.707-37.858-34.153-81.526-59.394-129.799-75.034-13.956-4.521-23.547-17.348-23.932-32.010-1.016-38.566-32.035-68.777-70.621-68.777h-32.63c-38.586 0-69.605 30.211-70.621 68.777-0.388 14.665-9.975 27.492-23.932 32.010-48.273 15.631-91.942 40.881-129.802 75.034-6.512 5.872-14.809 8.912-23.187 8.912-5.648 0-11.332-1.379-16.526-4.208-10.479-5.701-21.803-8.594-33.652-8.594-25.213 0-48.691 13.541-61.274 35.338l-16.315 28.253c-19.294 33.422-8.638 75.394 24.264 95.555 12.497 7.658 18.815 22.356 15.773 36.692-5.213 24.568-7.857 49.809-7.857 75.020 0 25.205 2.644 50.449 7.857 75.017 3.043 14.336-3.275 29.034-15.77 36.692-32.902 20.161-43.558 62.132-24.261 95.557l16.31 28.253c12.586 21.794 36.063 35.333 61.28 35.333 11.683 0 23.322-2.971 33.655-8.591 12.896-7.016 28.815-5.13 39.715 4.704 37.86 34.153 81.532 59.397 129.802 75.037 13.956 4.518 23.544 17.348 23.932 32.010 1.016 38.566 32.038 68.774 70.624 68.774h32.628c38.586 0 69.605-30.211 70.621-68.774 0.385-14.662 9.975-27.492 23.932-32.010 48.276-15.634 91.942-40.881 129.802-75.037 10.903-9.831 26.822-11.717 39.718-4.704 10.479 5.701 21.8 8.591 33.649 8.591 25.211 0 48.691-13.541 61.277-35.335l16.315-28.253c19.294-33.422 8.638-75.394-24.264-95.555-12.517-7.655-18.835-22.353-15.789-36.689zM512.004 752.526c-167.917 0-304.53-136.613-304.53-304.53s136.613-304.532 304.53-304.532c167.917 0 304.53 136.615 304.53 304.532s-136.613 304.53-304.53 304.53zM512.004 212.678c-129.752 0-235.315 105.563-235.315 235.318 0 129.752 105.563 235.315 235.315 235.315s235.315-105.563 235.315-235.315c0-129.755-105.563-235.318-235.315-235.318z" />
<glyph unicode="&#xe922;" glyph-name="heart" d="M512-30.369c-9.639 0-18.84 4.016-25.397 11.080l-409.255 441.099c-0.105 0.114-0.211 0.227-0.313 0.341-49.678 55.004-77.034 127.898-77.034 205.257 0 77.361 27.357 150.252 77.034 205.254l6.219 6.884c50.567 55.985 118.085 86.82 190.116 86.82s139.552-30.835 190.122-86.823l48.508-53.71 48.508 53.707c50.567 55.988 118.085 86.823 190.119 86.823s139.552-30.835 190.122-86.826l6.211-6.868c49.686-55.015 77.043-127.906 77.043-205.265s-27.359-150.252-77.034-205.254c-0.103-0.119-0.208-0.233-0.313-0.346l-409.258-441.099c-6.557-7.056-15.758-11.075-25.397-11.075zM128.303 468.761l383.697-413.548 383.697 413.551c78.944 87.585 78.894 229.945-0.152 317.463l-6.205 6.868c-37.273 41.269-86.535 63.992-138.712 63.992-52.18 0-101.442-22.723-138.704-63.978l-74.213-82.173c-6.565-7.272-15.908-11.421-25.705-11.421s-19.139 4.149-25.708 11.421l-74.216 82.167c-37.264 41.258-86.524 63.981-138.704 63.981s-101.442-22.72-138.704-63.978l-6.219-6.884c-79.046-87.519-79.099-229.878-0.152-317.46z" />
<glyph unicode="&#xe923;" glyph-name="homepage" d="M1012.046 523.157l-476.93 418.015c-13.233 11.595-33.004 11.595-46.234 0l-476.93-418.015c-14.563-12.765-16.022-34.923-3.257-49.491 12.765-14.56 34.925-16.022 49.489-3.254l36.928 32.364v-521.576c0-19.366 15.699-35.068 35.068-35.068h763.635c19.369 0 35.068 15.702 35.068 35.068v521.574l36.928-32.367c6.657-5.83 14.9-8.697 23.1-8.697 9.752 0 19.453 4.043 26.385 11.954 12.773 14.572 11.314 36.726-3.252 49.494zM431.019 16.267v288.885h161.957v-288.888l-161.957 0.003zM858.752 563.977v-547.709h-195.631v323.953c0 19.366-15.705 35.068-35.068 35.068h-232.097c-19.366 0-35.068-15.702-35.068-35.068v-323.956h-195.637v547.712c0 0.090-0.011 0.174-0.011 0.261l346.759 303.931 346.765-303.928c0.003-0.093-0.011-0.174-0.011-0.264zM433.445 621.273c0-19.369 15.699-35.068 35.068-35.068h86.97c19.366 0 35.068 15.699 35.068 35.068s-15.702 35.068-35.068 35.068h-86.97c-19.366 0-35.068-15.699-35.068-35.068z" />
<glyph unicode="&#xe924;" glyph-name="hourglass" d="M638.281 447.996c139.603 153.574 180.629 457.588 182.405 471.247 1.343 10.298-1.822 20.676-8.68 28.479-6.847 7.805-16.728 12.279-27.118 12.279h-545.776c-10.387 0-20.269-4.473-27.118-12.276-6.858-7.805-10.017-18.181-8.678-28.479 1.776-13.659 42.804-317.676 182.405-471.247-139.6-153.571-180.629-457.591-182.402-471.25-1.34-10.292 1.819-20.67 8.678-28.476 6.85-7.8 16.731-12.273 27.118-12.273h545.776c10.39 0 20.272 4.473 27.118 12.273 6.858 7.805 10.023 18.184 8.68 28.476-1.782 13.659-42.807 317.679-182.408 471.247zM281.606 8.193c16.873 92.086 67.933 315.557 179.231 412.598 7.863 6.858 12.374 16.78 12.374 27.208 0 10.43-4.513 20.353-12.374 27.208-111.307 97.050-162.367 320.535-179.231 412.601h460.794c-16.87-92.086-67.933-315.56-179.228-412.601-7.863-6.855-12.374-16.778-12.374-27.208 0-10.427 4.511-20.35 12.374-27.208 111.295-97.038 162.361-320.518 179.228-412.598h-460.794zM512.004 372.803c-46.862 0-85.629-47.321-122.014-148.925-22.897-63.937-36.798-126.779-37.378-129.424-2.348-10.679 0.277-21.845 7.127-30.367s17.196-13.474 28.129-13.474l248.276 0.006c10.936 0 21.277 4.955 28.132 13.477 6.847 8.516 9.469 19.683 7.124 30.367-0.58 2.642-14.485 65.487-37.376 129.418-36.391 101.604-75.161 148.922-122.020 148.922zM589.894 122.814l-155.783-0.003c5.244 19.319 12.212 43.116 20.54 67.318 29.469 85.594 51.309 105.598 57.353 109.733 6.035-4.127 27.791-24.049 57.156-109.167 8.403-24.352 15.438-48.381 20.734-67.881z" />
<glyph unicode="&#xe925;" glyph-name="inbox" d="M488.18 245.349c6.579-6.576 15.2-9.867 23.822-9.867s17.243 3.291 23.822 9.867l215.604 215.604c13.155 13.157 13.155 34.486 0 47.643-13.157 13.155-34.486 13.155-47.643 0l-158.095-158.095v575.809c0 18.604-15.087 33.688-33.688 33.688-18.607 0-33.688-15.084-33.688-33.688v-575.809l-158.095 158.089c-13.157 13.155-34.489 13.155-47.643 0-13.155-13.157-13.155-34.486 0-47.643l215.604-215.599zM967.153 302.859h-305.584c-18.607 0-33.688-15.087-33.688-33.688v-63.21c0-18.604 15.082-33.688 33.688-33.688s33.688 15.084 33.688 33.688v29.522h238.211v-232.106h-842.933v232.106h238.211v-29.522c0-18.604 15.082-33.688 33.688-33.688s33.688 15.084 33.688 33.688v63.21c0 18.601-15.082 33.688-33.688 33.688h-305.587c-18.607 0-33.688-15.087-33.688-33.688v-299.483c0-18.601 15.082-33.688 33.688-33.688h910.309c18.604 0 33.688 15.087 33.688 33.688v299.483c-0.003 18.601-15.084 33.688-33.691 33.688z" />
<glyph unicode="&#xe926;" glyph-name="globe" d="M512 960c-282.318 0-512-229.682-512-512s229.682-512 512-512c282.318 0 512 229.682 512 512s-229.682 512-512 512zM958.008 480.405h-232.591c-3.108 112.611-22.365 217.842-55.034 299.174-17.838 44.416-39.083 79.792-62.775 105.285 190.56-41.67 336.059-205.178 350.4-404.459zM512 28.562c-33.351 0-70.078 41.873-98.247 112.013-29.714 73.987-47.324 170.661-50.347 275.020h297.191c-3.025-104.36-20.633-201.033-50.35-275.020-28.169-70.14-64.898-112.013-98.247-112.013zM363.406 480.405c3.023 104.36 20.633 201.033 50.347 275.020 28.169 70.14 64.898 112.013 98.247 112.013s70.078-41.873 98.242-112.013c29.717-73.987 47.327-170.661 50.352-275.020h-297.188zM416.387 884.867c-23.689-25.494-44.937-60.87-62.775-105.285-32.664-81.334-51.921-186.562-55.029-299.174h-232.591c14.341 199.278 159.84 362.786 350.395 404.459zM65.992 415.595h232.591c3.108-112.611 22.365-217.842 55.029-299.174 17.838-44.416 39.086-79.789 62.775-105.283-190.555 41.668-336.053 205.176-350.395 404.457zM607.613 11.133c23.689 25.494 44.937 60.867 62.775 105.285 32.669 81.332 51.921 186.562 55.034 299.171h232.591c-14.346-199.276-159.845-362.784-350.4-404.457z" />
<glyph unicode="&#xe927;" glyph-name="key" d="M917.682 853.599c-68.608 68.614-159.838 106.401-256.877 106.401-97.032 0-188.263-37.787-256.877-106.401-48.868-48.868-82.626-110.197-97.625-177.362-12.823-57.42-11.554-116.892 3.534-173.419l-298.561-298.558c-7.394-7.394-11.435-17.494-11.178-27.947l4.82-198.212c0.495-20.376 16.891-36.772 37.267-37.27l198.212-4.817c0.312-0.009 0.621-0.012 0.929-0.012 10.121 0 19.844 4.017 27.018 11.191l221.761 221.761c0.003 0.003 0.009 0.009 0.015 0.012s0.009 0.009 0.015 0.018l76.769 76.766c30.573-8.161 62.076-12.291 93.933-12.291 0.006 0 0 0 0.006 0 97.023 0 188.241 37.781 256.837 106.386 141.645 141.648 141.645 372.117 0 513.756zM863.648 393.879c-54.171-54.171-126.196-84.001-202.809-84.001-31.588 0-62.714 5.132-92.505 15.241-13.777 4.677-29.011 1.122-39.297-9.164l-65.93-65.927-17.946 17.946c-14.92 14.92-39.111 14.926-54.036 0.006-14.923-14.92-14.923-39.117-0.003-54.036l17.949-17.952-73.667-73.67-17.949 17.952c-14.92 14.92-39.111 14.92-54.036 0-14.92-14.923-14.923-39.114 0-54.040l17.949-17.952-55.482-55.479-145.46 3.537-3.537 145.46 303.152 303.149c10.286 10.286 13.841 25.524 9.164 39.3-35.415 104.328-9.069 217.485 68.761 295.312 54.18 54.18 126.218 84.017 202.84 84.017 63.738 0 124.289-20.663 174.040-58.787l-110.142-110.142c-18.215 9.595-38.6 14.7-59.774 14.7-34.324 0-66.596-13.367-90.873-37.64-50.102-50.106-50.099-131.631 0.006-181.737 24.27-24.27 56.543-37.637 90.87-37.637 34.324 0 66.593 13.367 90.867 37.637 24.27 24.273 37.64 56.546 37.64 90.87 0 21.174-5.102 41.559-14.7 59.774l110.078 110.075c85.851-112.365 77.512-274.126-25.169-376.809zM701.762 637.673c9.843-9.84 15.259-22.919 15.259-36.827 0-13.911-5.416-26.994-15.262-36.833-9.84-9.836-22.919-15.256-36.827-15.256-13.911 0-26.994 5.416-36.827 15.256-20.315 20.312-20.315 53.358-0.009 73.664 9.84 9.84 22.922 15.259 36.836 15.259 13.908-0.003 26.988-5.42 36.83-15.262z" />
<glyph unicode="&#xe928;" glyph-name="lamp" d="M838.27 633.735c0 179.902-146.363 326.265-326.27 326.265s-326.27-146.363-326.27-326.265c0-124.803 50.088-191.182 94.28-249.75 37.319-49.458 69.547-92.165 69.547-167.226l-0.016-137.126c0-79.199 63.642-143.634 142.844-143.634h39.226c79.199 0 143.11 64.435 143.11 143.634l-0.277 137.126c0 75.061 32.228 117.768 69.544 167.226 44.194 58.565 94.282 124.947 94.282 249.75zM531.613 2.494h-39.226c-33.938 0-62.807 22.039-73.1 52.546h185.429c-10.296-30.507-39.165-52.546-73.103-52.546zM608.759 121.533h-193.517v31.789h193.517v-31.789zM607.961 219.816h-191.924c-0.87 95.453-42.59 150.733-82.949 204.22-41.588 55.112-80.864 107.166-80.864 209.697 0 143.238 116.534 259.772 259.777 259.772s259.777-116.534 259.777-259.772c0-102.53-39.279-154.587-80.864-209.697-40.359-53.487-82.080-108.767-82.952-204.22zM464.311 373.868c17.254 6.282 26.145 25.363 19.863 42.614l-72.289 198.491 24.523 38.375 53.001-49.086c12.748-11.804 32.436-11.804 45.184 0l52.998 49.086 24.525-38.375-72.289-198.491c-6.282-17.251 2.604-36.332 19.863-42.614 3.756-1.37 7.594-2.016 11.373-2.016 13.575 0 26.323 8.381 31.241 21.879l77.912 213.928c3.543 9.729 2.351 20.554-3.224 29.281l-54.791 85.739c-5.304 8.301-14.019 13.82-23.786 15.073-9.756 1.255-19.589-1.888-26.821-8.586l-59.594-55.195-59.594 55.192c-7.232 6.695-17.073 9.83-26.821 8.586-9.772-1.253-18.483-6.774-23.786-15.073l-54.791-85.739c-5.575-8.727-6.766-19.552-3.224-29.281l77.912-213.928c6.28-17.251 25.369-26.148 42.614-19.86z" />
<glyph unicode="&#xe929;" glyph-name="flag" d="M861.252 464.824l-118.773 203.091 119.732 204.727c6.378 10.906 6.435 24.39 0.15 35.346s-17.952 17.715-30.587 17.715h-604.386c-0.516 19.024-16.062 34.297-35.211 34.297-19.476 0-35.262-15.786-35.262-35.262v-953.477c0-19.476 15.786-35.262 35.262-35.262s35.262 15.786 35.262 35.262v438.862h604.329c0.023-0.003 0.037 0 0.056 0 19.476 0 35.262 15.786 35.262 35.262 0 7.185-2.147 13.865-5.834 19.439zM227.438 480.647v374.536h542.858l-99.111-169.465c-6.432-10.996-6.432-24.607 0-35.603l99.111-169.465-542.858-0.003z" />
<glyph unicode="&#xe92a;" glyph-name="map-marker" d="M511.999-64c-24.493 0-49.051 17.123-95.726 102.339-28.398 51.846-61.727 123.561-93.854 201.93-57.825 141.054-119.614 322.982-119.614 410.538 0 170.492 138.702 309.194 309.194 309.194s309.194-138.702 309.194-309.194c0-87.556-61.788-269.479-119.614-410.54-32.127-78.369-65.456-150.083-93.854-201.93-46.676-85.213-71.233-102.336-95.726-102.336zM511.999 893.504c-133.824 0-242.701-108.876-242.701-242.701 0-60.514 41.667-203.533 106.147-364.362 29.14-72.672 60.166-141.58 87.367-194.033 24.238-46.737 40.080-70.212 49.186-81.734 9.107 11.522 24.948 34.997 49.186 81.734 27.201 52.453 58.227 121.361 87.367 194.033 64.483 160.829 106.147 303.848 106.147 364.362 0 133.824-108.876 242.701-242.701 242.701zM511.999 538.525c-69.661 0-126.337 56.676-126.337 126.337s56.676 126.337 126.337 126.337c69.661 0 126.337-56.676 126.337-126.337s-56.674-126.337-126.337-126.337zM511.999 724.707c-32.999 0-59.844-26.847-59.844-59.844s26.845-59.844 59.844-59.844 59.844 26.847 59.844 59.844c0 32.997-26.842 59.844-59.844 59.844z" />
<glyph unicode="&#xe92b;" glyph-name="locked" d="M861.155 610.756h-72.942v151.101c0 109.257-88.886 198.143-198.143 198.143h-156.136c-109.257 0-198.143-88.886-198.143-198.143v-151.101h-72.942c-20.522 0-37.156-16.634-37.156-37.156v-362.927c0-151.457 123.219-274.673 274.676-274.673h223.264c151.457 0 274.676 123.219 274.676 274.673v362.927c0.003 20.522-16.631 37.156-37.153 37.156zM310.105 761.857c0 68.281 55.55 123.831 123.831 123.831h156.139c68.281 0 123.828-55.55 123.828-123.831v-151.101h-403.798v151.101zM823.999 210.673c0-110.479-89.882-200.361-200.361-200.361h-223.267c-110.479 0-200.364 89.882-200.364 200.361v325.77h623.992v-325.77zM474.847 133.671c0-20.522 16.634-37.156 37.156-37.156 20.519 0 37.156 16.634 37.156 37.156v106.085c4.42 6.117 7.060 13.608 7.060 21.732 0 20.519-16.637 37.156-37.156 37.156h-14.119c-20.519 0-37.156-16.637-37.156-37.156 0-8.121 2.637-15.615 7.060-21.732v-106.085z" />
<glyph unicode="&#xe92c;" glyph-name="magic" d="M996.001 659.604l-79.356 21.261c-20.146 5.393-40.852-6.559-46.257-26.706-5.396-20.149 6.559-40.855 26.706-46.257l79.353-21.261c3.275-0.876 6.562-1.296 9.798-1.296 16.678 0 31.936 11.131 36.456 28.002 5.402 20.149-6.553 40.858-26.7 46.257zM671.893 833.1c4.517-16.877 19.778-28.008 36.456-28.008 3.23 0 6.52 0.42 9.789 1.296 20.152 5.393 32.111 26.102 26.715 46.251l-21.249 79.353c-5.393 20.149-26.108 32.105-46.254 26.712s-32.108-26.102-26.709-46.251l21.252-79.353zM949.72 832.308c14.75 14.75 14.75 38.664 0 53.412-14.753 14.747-38.664 14.747-53.412 0l-58.089-58.089c-14.75-14.75-14.75-38.664 0-53.415 7.375-7.369 17.044-11.058 26.706-11.058 9.665 0 19.331 3.689 26.709 11.058l58.086 58.092zM722.012 765.953c-28.833 0-55.941-11.23-76.329-31.619l-614.068-614.062c-20.388-20.388-31.616-47.499-31.616-76.332 0-28.836 11.227-55.941 31.616-76.329s47.496-31.616 76.329-31.616 55.941 11.227 76.329 31.616l498.075 498.078c0.018 0.018 0.039 0.033 0.060 0.051 0.018 0.018 0.033 0.039 0.051 0.057l115.884 115.884c20.391 20.388 31.622 47.496 31.622 76.332-0.003 28.83-11.23 55.937-31.622 76.326-20.397 20.385-47.499 31.613-76.332 31.613zM130.861 21.027c-6.118-6.118-14.261-9.493-22.917-9.493s-16.799 3.369-22.917 9.493c-6.121 6.118-9.493 14.261-9.493 22.917s3.369 16.802 9.493 22.917l471.423 471.42 45.834-45.834-471.423-471.42zM744.929 635.095l-89.233-89.236-45.834 45.834 89.233 89.233c6.121 6.121 14.267 9.496 22.917 9.496 8.656 0 16.802-3.372 22.917-9.493 6.121-6.121 9.499-14.261 9.499-22.917-0.003-8.656-3.378-16.796-9.499-22.917z" />
<glyph unicode="&#xe92d;" glyph-name="search" d="M911.222 847.222c-72.728 72.728-169.423 112.781-272.275 112.778-0.005 0 0 0-0.005 0-102.842 0-199.547-40.056-272.272-112.778-72.725-72.728-112.778-169.425-112.778-272.278 0-70.185 18.666-137.498 53.623-196.291l-280.246-280.244c-17.581-17.586-27.268-40.965-27.268-65.834s9.684-48.248 27.268-65.829l3.476-3.476c17.584-17.586 40.963-27.27 65.834-27.27s48.248 9.684 65.831 27.268l280.244 280.246c58.791-34.96 126.106-53.623 196.291-53.623 102.852 0 199.55 40.053 272.278 112.778s112.778 169.423 112.778 272.275c0 102.852-40.048 199.547-112.778 272.278zM115.39 10.287c-5.027-5.027-11.708-7.793-18.815-7.793-7.104 0-13.785 2.769-18.812 7.793l-3.479 3.482c-5.024 5.024-7.793 11.703-7.793 18.807 0 7.109 2.769 13.791 7.793 18.815l272.594 272.591c6.301-7.309 12.897-14.418 19.788-21.312s14.004-13.49 21.312-19.788l-272.589-272.594zM864.203 349.688c-60.169-60.169-140.168-93.304-225.256-93.304-85.090 0-165.087 33.135-225.253 93.304-60.169 60.169-93.306 140.166-93.304 225.253 0 85.093 33.135 165.090 93.304 225.259s140.163 93.306 225.253 93.304c85.093 0 165.090-33.135 225.259-93.304s93.306-140.168 93.304-225.259c-0.003-85.088-33.138-165.085-93.306-225.253z" />
<glyph unicode="&#xe92e;" glyph-name="user" d="M709.732 428.309h-41.212c79.612 51.51 132.415 141.080 132.415 242.756 0 159.321-129.614 288.934-288.934 288.934s-288.934-129.614-288.934-288.934c0-101.676 52.798-191.246 132.415-242.756h-41.212c-105.909 0-192.072-86.158-192.072-192.067v-268.294c0-17.647 14.306-31.951 31.951-31.951h715.703c17.645 0 31.951 14.304 31.951 31.951v268.297c0 105.906-86.163 192.064-192.072 192.064zM286.969 671.066c0 124.082 100.947 225.032 225.032 225.032 124.082 0 225.032-100.95 225.032-225.032 0-124.080-100.95-225.027-225.032-225.027-124.085 0-225.032 100.947-225.032 225.027zM605.485 397.667l-93.484-93.486-93.484 93.484c29.336-10.058 60.781-15.528 93.484-15.528s64.15 5.47 93.484 15.531zM837.902-0.098h-86.907v153.516c0 17.647-14.306 31.951-31.951 31.951s-31.951-14.304-31.951-31.951v-153.516h-350.183v153.516c0 17.647-14.306 31.951-31.951 31.951s-31.951-14.304-31.951-31.951v-153.516h-86.907v236.343c0 70.668 57.497 128.165 128.17 128.165h47.132l128.006-128.004c6.239-6.239 14.416-9.358 22.593-9.358s16.349 3.118 22.593 9.358l128.006 128.004h47.132c70.671 0 128.17-57.491 128.17-128.165v-236.343z" />
<glyph unicode="&#xe92f;" glyph-name="notebook" d="M860.859 877.011h-127.029v49.378c0 18.564-15.049 33.611-33.611 33.611s-33.611-15.047-33.611-33.611v-49.378h-120.998v49.378c0 18.564-15.049 33.611-33.611 33.611s-33.611-15.047-33.611-33.611v-49.378h-120.998v49.378c0 18.564-15.049 33.611-33.611 33.611s-33.611-15.047-33.611-33.611v-49.378h-127.029c-18.561 0-33.611-15.049-33.611-33.611v-873.79c0-18.561 15.049-33.611 33.611-33.611h697.719c18.561 0 33.611 15.049 33.611 33.611v873.79c0 18.561-15.049 33.611-33.611 33.611zM827.249 3.221h-630.498v806.569h93.419v-39.23c0-18.564 15.049-33.611 33.611-33.611s33.611 15.047 33.611 33.611v39.23h120.998v-39.23c0-18.564 15.049-33.611 33.611-33.611s33.611 15.047 33.611 33.611v39.23h120.998v-39.23c0-18.564 15.049-33.611 33.611-33.611s33.611 15.047 33.611 33.611v39.23h93.419v-806.569zM710.975 584.212h-397.95c-18.561 0-33.611-15.049-33.611-33.611s15.049-33.611 33.611-33.611h397.95c18.561 0 33.611 15.049 33.611 33.611s-15.049 33.611-33.611 33.611zM710.975 395.992h-397.95c-18.561 0-33.611-15.052-33.611-33.611 0-18.561 15.049-33.611 33.611-33.611h397.95c18.561 0 33.611 15.049 33.611 33.611s-15.049 33.611-33.611 33.611zM710.975 207.773h-397.95c-18.561 0-33.611-15.052-33.611-33.611 0-18.561 15.049-33.611 33.611-33.611h397.95c18.561 0 33.611 15.049 33.611 33.611s-15.049 33.611-33.611 33.611z" />
<glyph unicode="&#xe930;" glyph-name="briefcase" d="M944.071 748.382h-215.871v38.627c0 45.552-37.055 82.613-82.61 82.613h-267.18c-45.549 0-82.61-37.058-82.61-82.613v-38.627h-215.868c-44.075 0-79.932-35.855-79.932-79.927v-562.148c0-44.072 35.857-79.929 79.932-79.929h864.135c44.075 0 79.932 35.857 79.932 79.929v562.148c0.003 44.069-35.852 79.927-79.929 79.927zM365.608 787.009c0 7.061 5.746 12.808 12.805 12.808h267.18c7.059 0 12.805-5.746 12.805-12.808v-38.627h-292.79v38.627zM79.935 678.577h864.135c5.584 0 10.127-4.54 10.127-10.122v-183.163c-108.164-40.124-271.315-63.824-442.491-63.824-170.799 0-333.726 23.619-441.902 63.609v183.378c0.003 5.582 4.546 10.122 10.13 10.122zM944.071 96.183h-864.135c-5.584 0-10.127 4.54-10.127 10.125v304.816c99.006-32.66 229.175-53.074 371.033-58.189-0.008-0.405-0.059-0.796-0.059-1.206v-15.393c0-28.857 23.477-52.334 52.337-52.334h37.77c28.86 0 52.337 23.477 52.337 52.334v15.393c0 0.41-0.056 0.813-0.059 1.223 141.947 5.16 272.097 25.632 371.036 58.357v-305.003c-0.006-5.582-4.548-10.122-10.133-10.122z" />
<glyph unicode="&#xe931;" glyph-name="book" d="M995.236 717.321h-55.666v3.077c0 12.079-7.543 22.871-18.892 27.017-68.981 25.209-139.393 37.992-209.276 37.992-66.56 0-133.585-11.618-199.397-34.498-65.821 22.878-132.848 34.498-199.406 34.498-69.887 0-140.297-12.783-209.271-37.992-11.345-4.147-18.89-14.937-18.89-27.015v-3.077h-55.673c-15.885 0-28.764-12.877-28.764-28.764v-549.202c0-15.887 12.879-28.764 28.764-28.764h966.472c15.882 0 28.764 12.877 28.764 28.764v549.2c0 15.885-12.882 28.764-28.764 28.764zM882.041 699.929v-432.759c-56.539 16.743-113.772 25.213-170.651 25.213s-114.099-8.466-170.621-25.209v432.756c56.532 18.554 113.839 27.945 170.633 27.945 56.792 0 114.099-9.393 170.64-27.947zM141.959 699.932c56.534 18.554 113.839 27.945 170.633 27.945s114.104-9.393 170.642-27.947v-432.759c-56.541 16.743-113.774 25.213-170.654 25.213-56.877 0-114.099-8.466-170.621-25.209v432.756zM57.528 659.793h26.902v-432.411c0-9.391 4.584-18.19 12.281-23.573 4.899-3.422 10.666-5.191 16.485-5.191 3.323 0 6.664 0.575 9.87 1.747 62.634 22.887 126.396 34.492 189.514 34.492 56.787 0 114.099-9.428 170.654-27.975v-38.762h-425.708l0.002 491.674zM966.472 168.119h-425.708v38.765c56.534 18.552 113.839 27.972 170.621 27.972 63.12 0 126.893-11.605 189.546-34.492 8.825-3.222 18.658-1.935 26.355 3.447 7.697 5.385 12.279 14.182 12.279 23.573v432.409h26.907v-491.674zM228.962 564.204h150.337c15.885 0 28.764 12.877 28.764 28.764s-12.879 28.764-28.764 28.764h-150.337c-15.885 0-28.764-12.877-28.764-28.764s12.879-28.764 28.764-28.764zM408.063 431.89c0 15.885-12.879 28.764-28.764 28.764h-150.337c-15.885 0-28.764-12.879-28.764-28.764s12.879-28.764 28.764-28.764h150.337c15.885 0 28.764 12.879 28.764 28.764zM644.701 564.204h150.337c15.882 0 28.764 12.877 28.764 28.764s-12.882 28.764-28.764 28.764h-150.337c-15.882 0-28.764-12.877-28.764-28.764s12.882-28.764 28.764-28.764zM644.701 403.126h150.337c15.882 0 28.764 12.879 28.764 28.764s-12.882 28.764-28.764 28.764h-150.337c-15.882 0-28.764-12.879-28.764-28.764s12.882-28.764 28.764-28.764z" />
<glyph unicode="&#xe932;" glyph-name="outbox" d="M296.397 677.019c8.619 0 17.243 3.291 23.822 9.867l158.095 158.095v-575.809c0-18.601 15.082-33.688 33.688-33.688 18.601 0 33.688 15.087 33.688 33.688v575.809l158.095-158.089c13.157-13.155 34.486-13.155 47.643 0 13.155 13.157 13.155 34.486 0 47.643l-215.604 215.599c-13.157 13.155-34.486 13.155-47.641 0l-215.607-215.604c-13.155-13.157-13.155-34.486 0-47.643 6.579-6.581 15.197-9.867 23.822-9.867zM967.153 302.856h-305.584c-18.607 0-33.688-15.084-33.688-33.688v-63.21c0-18.601 15.082-33.688 33.688-33.688s33.688 15.087 33.688 33.688v29.522h238.211v-232.104h-842.933v232.104h238.211v-29.522c0-18.601 15.082-33.688 33.688-33.688 18.604 0 33.688 15.087 33.688 33.688v63.21c0 18.604-15.084 33.688-33.688 33.688h-305.587c-18.607 0-33.688-15.084-33.688-33.688v-299.48c0-18.604 15.082-33.688 33.688-33.688h910.309c18.607 0 33.688 15.084 33.688 33.688v299.48c-0.003 18.607-15.082 33.688-33.691 33.688z" />
<glyph unicode="&#xe933;" glyph-name="camera" d="M991.095 726.578h-670.617v57.507c0 18.174-14.731 32.905-32.905 32.905h-122.843c-18.174 0-32.905-14.731-32.905-32.905v-57.507h-98.92c-18.171 0-32.905-14.733-32.905-32.905v-581.758c0-18.171 14.733-32.905 32.905-32.905h958.19c18.171 0 32.905 14.733 32.905 32.905v581.758c0 18.169-14.733 32.905-32.905 32.905zM197.635 751.18h57.033v-24.602h-57.033v24.602zM65.81 660.768h469.99c-101.631-41.592-173.422-141.549-173.422-257.974 0-116.428 71.791-216.385 173.422-257.974h-469.99v515.949zM640.987 615.596c117.339 0 212.802-95.464 212.802-212.8 0-117.341-95.464-212.802-212.802-212.802s-212.802 95.461-212.802 212.802c0 117.336 95.464 212.8 212.802 212.8zM958.19 144.82h-212.015c101.631 41.589 173.422 141.546 173.422 257.974 0 116.425-71.788 216.383-173.422 257.974h212.015v-515.949zM640.987 488.099c47.038 0 85.305-38.27 85.305-85.305 0-18.171 14.733-32.905 32.905-32.905 18.169 0 32.905 14.733 32.905 32.905 0 83.323-67.789 151.115-151.115 151.115-18.169 0-32.905-14.733-32.905-32.905s14.736-32.905 32.905-32.905z" />
<glyph unicode="&#xe934;" glyph-name="power" d="M512.001 451.224c-19.914 0-36.060 16.146-36.060 36.060v436.656c0 19.914 16.146 36.060 36.060 36.060s36.060-16.146 36.060-36.060v-436.656c0-19.914-16.143-36.060-36.060-36.060zM512.001-64c-253.374 0-459.507 206.136-459.507 459.504 0 101.325 32.336 197.409 93.516 277.863 59.181 77.829 143.192 135.761 236.553 163.121 19.112 5.622 39.144-5.351 44.746-24.46 5.599-19.112-5.351-39.144-24.463-44.746-163.822-48.014-278.235-200.891-278.235-371.777 0-213.604 173.78-387.384 387.387-387.384 213.604 0 387.387 173.78 387.387 387.384 0 170.886-114.414 323.763-278.235 371.777-19.112 5.599-30.062 25.634-24.46 44.746 5.596 19.112 25.631 30.077 44.746 24.46 93.363-27.359 177.369-85.292 236.553-163.121 61.181-80.457 93.516-176.538 93.516-277.863 0.006-253.368-206.13-459.504-459.504-459.504z" />
<glyph unicode="&#xe935;" glyph-name="bag" d="M926.744-27.597l-50.79 774.455c-1.117 17.036-15.261 30.283-32.333 30.283h-141.77v20.844c0 89.334-72.681 162.015-162.015 162.015h-55.72c-89.334 0-162.015-72.681-162.015-162.015v-20.844h-141.77c-17.072 0-31.216-13.246-32.333-30.283l-50.919-776.34c-0.588-8.941 2.556-17.726 8.684-24.266 6.128-6.545 14.688-10.252 23.652-10.252h765.123c0.018 0 0.034 0 0.052 0 17.894 0 32.403 14.506 32.403 32.403-0.005 1.351-0.086 2.688-0.249 4zM386.905 797.985c0 53.602 43.607 97.209 97.209 97.209h55.72c53.602 0 97.209-43.607 97.209-97.209v-20.844h-250.138v20.844zM164.011 0.806l46.666 711.526h111.422v-28.914c-23.058-11.821-38.884-35.82-38.884-63.463 0-39.309 31.978-71.287 71.287-71.287s71.287 31.978 71.287 71.287c0 27.644-15.826 51.643-38.884 63.463v28.914h250.138v-28.914c-23.061-11.821-38.884-35.82-38.884-63.463 0-39.309 31.978-71.287 71.287-71.287s71.287 31.978 71.287 71.287c0 27.644-15.826 51.643-38.884 63.463v28.914h111.422l46.666-711.526h-695.926z" />
<glyph unicode="&#xe936;" glyph-name="tools" d="M1005.531 661.262c-3.778 8.54-11.515 14.669-20.692 16.392-9.193 1.728-18.619-1.186-25.234-7.778l-104.642-104.229c-15.841-15.846-36.914-24.571-59.324-24.571-22.406 0-43.474 8.726-59.32 24.571s-24.574 36.914-24.576 59.324c0 22.41 8.73 43.474 24.542 59.293l104.549 104.247c6.624 6.603 9.567 16.054 7.855 25.249-1.71 9.2-7.846 16.959-16.397 20.744-27.485 12.156-58.036 18.587-88.354 18.587-56.324 0-108.574-21.227-147.123-59.776l-34.458-34.46c-59.746-59.746-77.429-147.796-46.984-224.96l-35.075-35.075-36.528 36.524 14.683 14.68c11.070 11.070 11.070 29.016 0 40.086l-142.701 142.701c9.202 38.311-1.853 78.828-30.472 107.431-21.628 21.63-50.386 33.544-80.973 33.544-30.585 0-59.343-11.909-80.975-33.537l-89.787-89.794c-21.63-21.626-33.544-50.383-33.544-80.971s11.914-59.347 33.542-80.98c21.615-21.615 50.361-33.519 80.937-33.522h0.005c9.002 0 17.855 1.032 26.479 3.075l142.717-142.721c5.315-5.315 12.524-8.302 20.043-8.302s14.728 2.986 20.043 8.302l14.674 14.676 36.526-36.522-142.901-142.901c-25.268-25.27-39.184-58.864-39.186-94.597-0.002-35.739 13.914-69.327 39.181-94.603 25.272-25.268 58.869-39.177 94.601-39.177 35.735 0 69.329 13.916 94.601 39.177l142.923 142.923 142.243-142.286c3.159-3.163 7.018-5.528 11.265-6.909l96.755-31.515c2.882-0.939 5.841-1.395 8.776-1.395 7.404 0 14.644 2.9 20.048 8.304 7.542 7.537 10.209 18.676 6.909 28.819l-31.51 96.764c-1.385 4.245-3.751 8.107-6.909 11.265l-142.243 142.288 35.082 35.084c24.308-9.503 50.426-14.465 76.64-14.465 56.021 0 108.683 21.816 148.291 61.424l34.456 34.456c60.363 60.361 77.059 154.846 41.544 235.112zM303.722 475.466l-134.964 134.969c-5.429 5.429-12.678 8.302-20.050 8.302-3.789 0-7.61-0.76-11.234-2.322-7.277-3.145-15.011-4.739-22.993-4.739-15.44 0.002-29.948 6.009-40.857 16.916-10.921 10.923-16.937 25.447-16.937 40.891s6.014 29.964 16.937 40.884l89.789 89.794c10.923 10.921 25.447 16.937 40.891 16.937s29.964-6.014 40.889-16.943c16.866-16.859 21.649-41.916 12.179-63.837-4.605-10.667-2.236-23.066 5.98-31.281l134.969-134.969-94.599-94.601zM378.527 470.099l25.161 25.161 36.524-36.524-25.161-25.161-36.524 36.524zM766.868 132.082l12.15-37.318-37.313 12.152-137.436 137.486 25.163 25.163 137.436-137.483zM923.898 466.232l-34.456-34.456c-28.903-28.903-67.329-44.823-108.207-44.823-24.494 0.005-48.699 5.762-70.297 16.966-12.011 6.222-25.844 2.444-35.191-7.467l-294.57-294.973c-14.562-14.562-33.923-22.578-54.515-22.578s-39.952 8.016-54.515 22.578c-14.558 14.567-22.578 33.923-22.578 54.513 0 20.594 8.020 39.95 22.583 54.515l294.921 294.617c10.17 9.664 13.698 23.186 7.469 35.195-30.83 59.463-19.497 131.055 27.903 178.452l34.46 34.46c27.839 27.839 65.853 43.172 107.032 43.172 7.649 0 15.311-0.549 22.893-1.63l-70.601-70.397c-26.553-26.551-41.175-61.857-41.175-99.406 0.005-37.553 14.626-72.86 41.179-99.411 26.553-26.556 61.857-41.179 99.411-41.175 37.556 0.005 72.857 14.624 99.365 41.136l70.785 70.504c6.721-47.458-8.168-96.061-41.898-129.792zM333.23 206.776c-11.812 0-22.916-4.596-31.268-12.95-8.349-8.354-12.95-19.456-12.95-31.268s4.599-22.912 12.95-31.268c8.351-8.349 19.456-12.95 31.268-12.95 11.812 0.005 22.914 4.601 31.268 12.955 8.354 8.351 12.95 19.456 12.95 31.263 0 11.812-4.599 22.918-12.95 31.268s-19.456 12.95-31.268 12.95z" />
<glyph unicode="&#xe937;" glyph-name="basket" d="M890.391 640.441h-54.495c-1.336 63.702-9.083 120.279-48.236 166.195-34.504 40.453-88.774 65.528-167.387 76.65-10.557 17.668-30.622 29.634-53.606 29.634h-109.325c-22.982 0-43.049-11.966-53.606-29.634-78.613-11.122-132.884-36.197-167.384-76.65-39.159-45.916-46.903-102.493-48.239-166.195h-54.495c-73.674 0-133.615-59.941-133.615-133.615 0-62.529 43.173-115.162 101.275-129.66v-218.276c0-96.943 78.867-175.809 175.809-175.809h469.835c96.943 0 175.809 78.867 175.809 175.809v218.276c58.099 14.495 101.272 67.131 101.272 129.66 0.006 73.677-59.933 133.615-133.609 133.615zM289.855 761.001c22.911 26.864 63.86 44.329 124.107 52.765 11.131-10.461 26.464-16.937 43.376-16.937h109.325c16.911 0 32.245 6.475 43.376 16.937 60.245-8.436 101.199-25.902 124.107-52.765 24.844-29.128 30.304-70.265 31.404-120.56h-507.098c1.097 50.295 6.56 91.432 31.404 120.56zM890.391 443.534h-3.395c-9.857 0-18.895-4.141-25.553-11.407s-9.108-17.139-9.108-26.81l0.070-246.425c0-58.169-47.314-105.486-105.486-105.486h-469.835c-58.166 0-105.486 47.317-105.486 105.486l-0.017 246.425c0 10.287-2.45 19.544-9.108 26.81s-15.609 11.407-25.466 11.407h-3.392c-34.9 0-63.291 28.391-63.291 63.291 0 34.897 28.391 63.291 63.291 63.291h756.776c34.897 0 63.291-28.394 63.291-63.291s-28.394-63.291-63.291-63.291zM315.095 377.261c-19.421 0-35.162-15.747-35.162-35.162v-151.899c0-19.415 15.741-35.162 35.162-35.162s35.162 15.747 35.162 35.162v151.899c0 19.415-15.741 35.162-35.162 35.162zM512.001 377.261c-19.421 0-35.162-15.747-35.162-35.162v-151.899c0-19.415 15.741-35.162 35.162-35.162s35.162 15.747 35.162 35.162v151.899c0 19.415-15.741 35.162-35.162 35.162zM708.908 377.261c-19.421 0-35.162-15.747-35.162-35.162v-151.899c0-19.415 15.741-35.162 35.162-35.162s35.162 15.747 35.162 35.162v151.899c0 19.415-15.741 35.162-35.162 35.162z" />
<glyph unicode="&#xe938;" glyph-name="cart" d="M988.929 790.924h-741.35l-42.705 100.379c-4.371 10.274-13.374 17.851-24.239 20.41l-137.529 32.358c-18.853 4.449-37.733-7.249-42.166-26.105-4.438-18.853 7.249-37.731 26.105-42.166l120.242-28.296 307.823-723.595c-9.533-16.836-15.009-36.266-15.009-56.956 0-63.945 52.024-115.969 115.966-115.969 63.945 0 115.969 52.022 115.969 115.969 0 16.064-3.288 31.371-9.216 45.294h126.276c-5.928-13.921-9.216-29.227-9.216-45.294 0-63.945 52.027-115.969 115.975-115.969 63.942 0 115.964 52.022 115.964 115.969 0 63.95-52.022 115.972-115.964 115.972l-389.4-0.541-48.029 112.9h530.506c19.369 0 35.068 15.702 35.068 35.068v425.504c-0.003 19.366-15.702 35.068-35.071 35.068zM895.925 112.752c25.308 0 45.824-20.513 45.824-45.822 0-25.305-20.513-45.822-45.824-45.822-25.308 0-45.822 20.516-45.822 45.822 0 25.308 20.513 45.822 45.822 45.822zM556.243 112.752c25.308 0 45.824-20.513 45.824-45.822 0-25.305-20.516-45.822-45.824-45.822s-45.822 20.516-45.822 45.822c0 25.308 20.516 45.822 45.822 45.822zM953.861 578.172h-232.443c-19.366 0-35.068-15.702-35.068-35.068s15.702-35.068 35.068-35.068h232.443v-142.615h-525.268l-151.18 355.367h676.449v-142.615z" />
<glyph unicode="&#xe939;" glyph-name="comment" d="M871.331 827.446c-96.308 77.88-223.918 120.771-359.331 120.771s-263.023-42.891-359.331-120.774c-98.45-79.618-152.669-186.122-152.669-299.894 0-113.775 54.219-220.284 152.669-299.897 96.308-77.886 223.918-120.78 359.331-120.78 13.786 0 27.677 0.459 41.502 1.373l87.208-143.807c6.125-10.097 16.977-16.374 28.781-16.656 0.268-0.006 0.529-0.006 0.803-0.006 11.5 0 22.283 5.724 28.718 15.303l184.636 274.905c90.579 78.409 140.353 180.927 140.353 289.56 0 113.78-54.217 220.284-152.669 299.903zM832.813 285.586l-161.033-238.941-70.222 115.795c-6.308 10.407-17.569 16.656-29.576 16.656-1.16 0-2.325-0.058-3.493-0.172-18.688-1.893-37.693-2.848-56.494-2.848-244.167 0-442.807 157.676-442.807 351.482 0 193.803 198.641 351.476 442.807 351.476s442.807-157.673 442.807-351.476c0.006-90.335-43.32-176.264-121.989-241.972z" />
<glyph unicode="&#xe93a;" glyph-name="comment2" d="M844.469 939.232h-664.938c-98.995 0-179.531-80.539-179.531-179.534v-410.135c0-98.995 80.536-179.531 179.531-179.531l423.53-0.003 202.744-202.741c6.871-6.874 16.052-10.519 25.399-10.519 4.625 0 9.29 0.896 13.731 2.737 13.417 5.555 22.167 18.643 22.167 33.169v178.776c88.355 11.16 156.899 86.781 156.899 178.112v410.135c0 98.995-80.536 179.534-179.531 179.534zM952.188 349.559c0-59.398-48.321-107.719-107.719-107.719h-13.274c-19.829 0-35.906-16.080-35.906-35.906v-126.574l-151.964 151.964c-6.733 6.736-15.862 10.516-25.39 10.516h-438.404c-59.398 0-107.719 48.321-107.719 107.719v410.135c0 59.398 48.321 107.719 107.719 107.719h664.938c59.398 0 107.719-48.321 107.719-107.719v-410.135zM776.27 684.978h-528.54c-19.829 0-35.906-16.075-35.906-35.906 0-19.829 16.077-35.906 35.906-35.906h528.54c19.829 0 35.906 16.077 35.906 35.906 0 19.832-16.075 35.906-35.906 35.906zM776.27 483.903h-528.54c-19.829 0-35.906-16.075-35.906-35.906s16.077-35.906 35.906-35.906h528.54c19.829 0 35.906 16.077 35.906 35.906s-16.075 35.906-35.906 35.906z" />
<glyph unicode="&#xe93b;" glyph-name="star" d="M805.885-40.728c-5.801 0-11.627 1.386-16.964 4.19l-276.92 145.585-276.92-145.585c-12.29-6.457-27.179-5.383-38.41 2.778-11.233 8.158-16.856 21.988-14.51 35.676l52.885 308.356-224.032 218.378c-9.941 9.69-13.518 24.185-9.229 37.385 4.289 13.203 15.703 22.826 29.443 24.824l309.607 44.986 138.46 280.552c6.142 12.45 18.823 20.331 32.705 20.331 13.88 0 26.563-7.881 32.702-20.331l138.46-280.552 309.605-44.986c13.74-1.999 25.151-11.619 29.443-24.824 4.292-13.2 0.715-27.695-9.229-37.385l-224.035-218.38 52.887-308.356c2.346-13.681-3.28-27.517-14.51-35.676-6.352-4.616-13.874-6.965-21.44-6.965zM114.849 529.293l184.847-180.178c8.596-8.377 12.52-20.454 10.486-32.279l-43.635-254.418 228.479 120.125c10.627 5.585 23.319 5.585 33.945 0l228.479-120.119-43.638 254.412c-2.028 11.834 1.894 23.902 10.489 32.279l184.849 180.178-255.448 37.12c-11.878 1.727-22.149 9.185-27.462 19.952l-114.237 231.478-114.239-231.478c-5.31-10.764-15.584-18.224-27.462-19.952l-255.454-37.12z" />
<glyph unicode="&#xe93c;" glyph-name="cancel-button" d="M512.003-63.997c-282.323 0-512.003 229.68-512.003 511.997s229.68 511.997 512.003 511.997c282.317 0 511.997-229.68 511.997-511.997s-229.68-511.997-511.997-511.997zM512.003 876.063c-236.039 0-428.069-192.027-428.069-428.063 0-236.039 192.031-428.063 428.069-428.063 236.035 0 428.063 192.024 428.063 428.063 0 236.035-192.027 428.063-428.063 428.063zM758.756 406.033h-493.504c-23.176 0-41.967 18.794-41.967 41.967 0 23.176 18.791 41.967 41.967 41.967h493.504c23.176 0 41.967-18.791 41.967-41.967 0-23.172-18.791-41.967-41.967-41.967z" />
<glyph unicode="&#xe93d;" glyph-name="telephone" d="M770.105-63.986c-78.758 0-141.074 52.218-186.566 97.709l-485.816 485.813c-40.616 40.616-88.289 96.139-96.471 165.554-8.153 69.133 23.402 138.257 96.471 211.325 42.184 42.181 89.061 63.569 139.334 63.569 119.758 0 211.221-124.186 218.951-134.99 40.694-54.097 23.437-119.038 8.205-176.355-16.246-61.144-24.765-100.060 3.595-128.421l116.41-116.404c12.786-12.786 27.79-18.487 48.66-18.485 23.731 0.003 50.945 7.231 79.758 14.886 31.435 8.352 63.938 16.986 95.978 16.986 31.103 0 58.145-8.473 80.383-25.197 10.262-7.338 124.653-91.573 134.33-203.742 4.829-55.972-16.341-107.966-62.915-154.54-65.742-65.75-127.995-97.709-190.308-97.709zM237.058 887.957c-30.907 0-59.827-13.892-88.407-42.475-56.456-56.453-81.273-106.159-75.874-151.959 4.365-36.998 27.764-74.952 75.874-123.062l485.816-485.813c52.988-52.985 94.814-76.612 135.635-76.612 42.238 0 87.83 25.059 139.383 76.612 31.219 31.216 44.987 63.019 42.097 97.223-6.877 81.435-103.682 150.979-104.661 151.671-0.317 0.23-0.689 0.501-1.005 0.738-9.784 7.433-21.642 10.893-37.303 10.893-22.633 0-49.277-7.079-77.488-14.572-32.008-8.505-65.111-17.298-98.245-17.3 0 0-0.012 0-0.017 0-39.813 0-73.313 13.316-99.573 39.579l-116.413 116.404c-59.133 59.136-38.698 136.050-22.273 197.848 14.653 55.143 22.21 90.386 3.676 114.782-0.265 0.349-0.521 0.7-0.775 1.057-0.7 1-75.436 104.987-160.446 104.987z" />
<glyph unicode="&#xe93e;" glyph-name="unlocked" d="M839.355 568.632h-103.013l30.486 129.283c23.516 99.699-38.476 199.942-138.17 223.456l-142.482 33.602c-48.283 11.385-98.133 3.291-140.341-22.805s-71.724-67.067-83.112-115.368c-4.417-18.728 7.185-37.487 25.91-41.901 18.72-4.417 37.487 7.185 41.901 25.91 7.118 30.182 25.564 55.789 51.943 72.098 26.378 16.312 57.522 21.376 87.71 14.252l142.482-33.602c62.305-14.695 101.048-77.343 86.353-139.65l-34.265-145.274h-480.112c-19.238 0-34.837-15.598-34.837-34.837v-340.267c0-141.999 115.526-257.526 257.526-257.526h209.329c141.999 0 257.526 115.526 257.526 257.526v340.267c0.003 19.238-15.593 34.837-34.834 34.837zM804.518 193.529c0-103.584-84.271-187.853-187.85-187.853h-209.332c-103.582 0-187.853 84.268-187.853 187.853v305.43h585.037l-0.003-305.43zM477.163 121.331c0-19.238 15.596-34.837 34.837-34.837 19.235 0 34.837 15.598 34.837 34.837v99.465c4.147 5.733 6.619 12.756 6.619 20.375 0 19.235-15.601 34.837-34.837 34.837h-13.238c-19.238 0-34.837-15.601-34.837-34.837 0-7.614 2.472-14.643 6.619-20.375v-99.465z" />
<glyph unicode="&#xe93f;" glyph-name="update" d="M1022.047 228.547c-6.774 20.849-29.166 32.246-50.018 25.485l-51.618-16.771c31.621 65.394 48.182 137.305 48.182 210.737 0 267.043-217.251 484.297-484.297 484.297-267.043 0-484.297-217.254-484.297-484.297s217.254-484.297 484.297-484.297c21.922 0 39.696 17.774 39.696 39.696 0 21.919-17.774 39.696-39.696 39.696-223.266 0-404.904 181.635-404.904 404.904 0 223.266 181.638 404.904 404.904 404.904 223.269 0 404.904-181.638 404.904-404.904 0-61.52-13.881-121.747-40.405-176.468l-17.635 54.292c-6.774 20.845-29.172 32.253-50.018 25.485-20.852-6.777-32.265-29.172-25.491-50.021l46.81-144.076c5.446-16.777 21.007-27.445 37.743-27.445 4.062 0 8.2 0.629 12.274 1.95l144.079 46.804c20.849 6.777 32.262 29.169 25.488 50.027z" />
<glyph unicode="&#xe940;" glyph-name="update2" d="M994.606 848.602c-20.080 4.309-39.834-8.484-44.133-28.555l-27.012-126.052c-86.001 146.715-243.855 238.782-416.864 238.782-266.439 0-483.201-216.76-483.201-483.201 0-20.526 16.64-37.169 37.169-37.169 20.526 0 37.169 16.643 37.169 37.169 0 225.448 183.414 408.863 408.863 408.863 146.979 0 281.045-78.511 353.629-203.518l-123.92 26.557c-20.077 4.303-39.834-8.486-44.13-28.558-4.3-20.071 8.486-39.834 28.558-44.133l212.716-45.584c3.613-0.776 7.282-0.999 10.901-0.696 6.027 0.508 11.903 2.486 17.077 5.834 8.278 5.355 14.089 13.779 16.155 23.417l45.587 212.716c4.294 20.068-8.492 39.825-28.564 44.13zM957.205 498.295c-20.514-0.678-36.601-17.859-35.923-38.374 3.604-109.153-35.51-213.171-110.146-292.906-74.633-79.727-175.847-125.626-284.997-129.23-4.55-0.149-9.075-0.223-13.607-0.223-142.421 0.006-273.62 73.973-347.715 193.816l129.192-34.642c19.828-5.314 40.211 6.447 45.528 26.277 5.317 19.828-6.447 40.208-26.274 45.531l-210.123 56.337c-9.521 2.548-19.67 1.216-28.204-3.708-8.54-4.924-14.77-13.045-17.324-22.566l-56.334-210.129c-5.317-19.828 6.447-40.208 26.274-45.528 3.226-0.865 6.462-1.282 9.649-1.282 16.408 0 31.427 10.955 35.879 27.556l31.665 118.1c88.088-138.707 241.419-224.107 407.768-224.101 5.343 0 10.717 0.086 16.081 0.265 128.995 4.264 248.612 58.502 336.817 152.727s134.431 217.161 130.17 346.159c-0.675 20.512-17.865 36.649-38.377 35.92z" />
<glyph unicode="&#xe941;" glyph-name="wallet2" d="M1023.981 590.656c0 0 3.764 183.456-95.957 286.342-47.111 48.607-108.744 73.254-183.187 73.254h-614.565c-71.835 0-130.272-58.441-130.272-130.272v-702.654c0-94.606 76.971-171.577 171.577-171.577h680.818c94.606 0 171.577 76.971 171.577 171.577l0.008 473.331zM130.272 881.618h614.565c55.841 0 99.581-17.075 133.729-52.206 24.888-25.61 41.717-58.012 53.098-90.563-19.499 10.201-41.258 19.483-79.269 19.483s-680.818 0-680.818 0h-41.305c-33.989 0-61.642 27.653-61.642 61.642s27.653 61.644 61.642 61.644zM955.342 368.956h-60.889c-18.953 0-34.315-15.365-34.315-34.315s15.362-34.315 34.315-34.315h60.889v-70.838h-78.217c-56.766 0-102.946 46.18-102.946 102.946v4.406c0 56.766 46.18 102.946 102.946 102.946h78.217v-70.83zM955.342 508.423h-78.217c-94.606 0-171.577-76.971-171.577-171.577v-4.403c0-94.609 76.971-171.577 171.577-171.577h78.217v-43.537c0-56.766-46.18-102.946-102.946-102.946h-680.818c-56.766 0-102.946 46.18-102.946 102.946v587.917c18.363-9.905 39.356-15.541 61.642-15.541h722.123c56.766 0 102.946-46.18 102.946-102.946v-78.335z" />
<glyph unicode="&#xe942;" glyph-name="weighing-scale" d="M315.198 493.608h-283.256c-17.639 0-31.942-14.302-31.942-31.942 0-95.708 77.864-173.571 173.571-173.571s173.571 77.866 173.571 173.571c-0.003 17.639-14.302 31.942-31.944 31.942zM173.571 351.978c-49.377 0-91.238 32.793-104.945 77.746h209.89c-13.707-44.953-55.568-77.746-104.945-77.746zM992.058 493.608h-283.259c-17.637 0-31.942-14.302-31.942-31.942 0-95.708 77.866-173.571 173.574-173.571 95.705 0 173.571 77.866 173.571 173.571-0.003 17.639-14.302 31.942-31.944 31.942zM850.431 351.978c-49.377 0-91.238 32.793-104.945 77.746h209.89c-13.704-44.953-55.568-77.746-104.945-77.746zM617.403 99.483h-73.461v625.301c28.403 3.393 60.991 10.344 94.949 17.604 39.23 8.384 79.793 17.054 113.861 20.072 43.098 3.818 57.117-3.345 61.139-6.6 1.091-0.882 3.342-2.716 4.198-8.757l-60.682-202.16c-5.072-16.896 4.515-34.704 21.409-39.776 16.896-5.065 34.707 4.515 39.776 21.411l31.781 105.873 31.783-105.873c4.152-13.835 16.842-22.765 30.58-22.765 3.038 0 6.13 0.437 9.197 1.354 16.896 5.072 26.481 22.88 21.409 39.776l-61.305 204.24c-2.052 29.279-16.050 46.712-27.96 56.348-47.115 38.105-135.231 19.272-228.531-0.672-29.44-6.294-57.766-12.337-81.597-15.677v39.276c0 17.639-14.305 31.942-31.942 31.942-17.639 0-31.942-14.302-31.942-31.942v-39.276c-23.826 3.34-52.154 9.383-81.597 15.677-93.295 19.944-181.419 38.772-228.529 0.672-11.91-9.636-25.911-27.069-27.963-56.348l-61.305-204.24c-5.072-16.896 4.515-34.704 21.409-39.776 16.896-5.065 34.704 4.515 39.776 21.411l31.781 105.873 31.781-105.873c4.152-13.835 16.842-22.765 30.58-22.765 3.041 0 6.133 0.437 9.197 1.354 16.896 5.072 26.481 22.88 21.409 39.776l-60.687 202.16c0.853 6.038 3.107 7.876 4.196 8.757 4.027 3.255 18.043 10.418 61.139 6.6 34.068-3.020 74.634-11.688 113.861-20.072 33.958-7.26 66.546-14.21 94.949-17.604v-625.304h-73.461c-17.642 0-31.942-14.302-31.942-31.939 0-17.639 14.3-31.942 31.942-31.942h210.805c17.642 0 31.942 14.302 31.942 31.942s-14.297 31.942-31.942 31.942z" />
<glyph unicode="&#xe943;" glyph-name="wrench" d="M1001.247 723.506c-4.655 10.522-14.187 18.073-25.494 20.194-11.323 2.129-22.94-1.461-31.087-9.58l-128.929-128.421c-19.518-19.52-45.481-30.271-73.092-30.274-27.606 0-53.563 10.751-73.086 30.277-19.523 19.523-30.277 45.478-30.279 73.089 0 27.611 10.756 53.566 30.235 73.053l128.815 128.443c8.164 8.136 11.787 19.777 9.681 31.109s-9.669 20.895-20.205 25.552c-33.864 14.98-71.505 22.901-108.861 22.904-69.393-0.003-133.771-26.156-181.26-73.648l-42.461-42.455c-73.612-73.612-95.398-182.099-57.888-277.167l-349.055-349.055c-31.132-31.137-48.277-72.525-48.28-116.553s17.143-85.418 48.274-116.555c31.137-31.134 72.53-48.274 116.555-48.274 44.028 0.003 85.418 17.146 116.555 48.274l349.091 349.094c29.947-11.709 62.129-17.822 94.423-17.822 69.021 0 133.908 26.874 182.705 75.679l42.452 42.449c74.377 74.38 94.942 190.793 51.191 289.686zM724.899 385.537c-30.176 0.006-60.003 7.099-86.614 20.901-14.793 7.666-31.838 3.015-43.355-9.2l-362.937-363.423c-17.942-17.945-41.796-27.821-67.166-27.821s-49.224 9.879-67.166 27.818c-17.936 17.942-27.818 41.793-27.818 67.163s9.882 49.224 27.824 67.166l363.364 362.987c12.53 11.907 16.877 28.57 9.203 43.363-37.985 73.262-24.021 161.469 34.378 219.868l42.458 42.455c34.3 34.303 81.135 53.194 131.871 53.194 9.424 0 18.864-0.679 28.206-2.009l-86.986-86.734c-32.718-32.716-50.73-76.213-50.73-122.478 0.006-46.268 18.017-89.765 50.736-122.478 32.713-32.718 76.213-50.736 122.481-50.733 46.268 0.006 89.763 18.020 122.425 50.683l87.209 86.868c8.284-58.477-10.063-118.357-51.616-159.913l-42.452-42.455c-35.607-35.607-82.957-55.223-133.316-55.223zM172.921 163.543c-14.553 0-28.234-5.663-38.524-15.956-10.287-10.292-15.956-23.971-15.956-38.524s5.666-28.229 15.956-38.524c10.29-10.29 23.971-15.956 38.524-15.956 14.553 0.006 28.232 5.666 38.524 15.961 10.292 10.29 15.956 23.971 15.956 38.518 0 14.553-5.666 28.234-15.956 38.524-10.292 10.295-23.971 15.956-38.524 15.956z" />
<glyph unicode="&#xe97a;" glyph-name="spinner" d="M384 832c0 70.692 57.308 128 128 128s128-57.308 128-128c0-70.692-57.308-128-128-128s-128 57.308-128 128zM655.53 719.53c0 70.692 57.308 128 128 128s128-57.308 128-128c0-70.692-57.308-128-128-128s-128 57.308-128 128zM832 448c0 35.346 28.654 64 64 64s64-28.654 64-64c0-35.346-28.654-64-64-64s-64 28.654-64 64zM719.53 176.47c0 35.346 28.654 64 64 64s64-28.654 64-64c0-35.346-28.654-64-64-64s-64 28.654-64 64zM448.002 64c0 0 0 0 0 0 0 35.346 28.654 64 64 64s64-28.654 64-64c0 0 0 0 0 0 0-35.346-28.654-64-64-64s-64 28.654-64 64zM176.472 176.47c0 0 0 0 0 0 0 35.346 28.654 64 64 64s64-28.654 64-64c0 0 0 0 0 0 0-35.346-28.654-64-64-64s-64 28.654-64 64zM144.472 719.53c0 0 0 0 0 0 0 53.019 42.981 96 96 96s96-42.981 96-96c0 0 0 0 0 0 0-53.019-42.981-96-96-96s-96 42.981-96 96zM56 448c0 39.765 32.235 72 72 72s72-32.235 72-72c0-39.765-32.235-72-72-72s-72 32.235-72 72z" />
<glyph unicode="&#xe97b;" glyph-name="spinner2" d="M1024 448c-1.278 66.862-15.784 133.516-42.576 194.462-26.704 61-65.462 116.258-113.042 161.92-47.552 45.696-103.944 81.82-164.984 105.652-61.004 23.924-126.596 35.352-191.398 33.966-64.81-1.282-129.332-15.374-188.334-41.356-59.048-25.896-112.542-63.47-156.734-109.576-44.224-46.082-79.16-100.708-102.186-159.798-23.114-59.062-34.128-122.52-32.746-185.27 1.286-62.76 14.964-125.148 40.134-182.206 25.088-57.1 61.476-108.828 106.11-151.548 44.61-42.754 97.472-76.504 154.614-98.72 57.118-22.304 118.446-32.902 179.142-31.526 60.708 1.29 120.962 14.554 176.076 38.914 55.15 24.282 105.116 59.48 146.366 102.644 41.282 43.14 73.844 94.236 95.254 149.43 13.034 33.458 21.88 68.4 26.542 103.798 1.246-0.072 2.498-0.12 3.762-0.12 35.346 0 64 28.652 64 64 0 1.796-0.094 3.572-0.238 5.332h0.238zM922.306 278.052c-23.472-53.202-57.484-101.4-99.178-141.18-41.67-39.81-91-71.186-144.244-91.79-53.228-20.678-110.29-30.452-166.884-29.082-56.604 1.298-112.596 13.736-163.82 36.474-51.25 22.666-97.684 55.49-135.994 95.712-38.338 40.198-68.528 87.764-88.322 139.058-19.87 51.284-29.228 106.214-27.864 160.756 1.302 54.552 13.328 108.412 35.254 157.69 21.858 49.3 53.498 93.97 92.246 130.81 38.73 36.868 84.53 65.87 133.874 84.856 49.338 19.060 102.136 28.006 154.626 26.644 52.5-1.306 104.228-12.918 151.562-34.034 47.352-21.050 90.256-51.502 125.624-88.782 35.396-37.258 63.21-81.294 81.39-128.688 18.248-47.392 26.782-98.058 25.424-148.496h0.238c-0.144-1.76-0.238-3.536-0.238-5.332 0-33.012 24.992-60.174 57.086-63.624-6.224-34.822-16.53-68.818-30.78-100.992z" />
<glyph unicode="&#xe97c;" glyph-name="spinner3" d="M512 656.904c-32.964 0-59.686 26.724-59.686 59.686v179.060c0 32.964 26.722 59.686 59.686 59.686 32.962 0 59.688-26.722 59.688-59.686v-179.060c0-32.964-26.726-59.686-59.688-59.686zM512-36.956c-20.602 0-37.304 16.702-37.304 37.304v179.060c0 20.602 16.702 37.304 37.304 37.304 20.604 0 37.304-16.704 37.304-37.304v-179.060c0-20.602-16.7-37.304-37.304-37.304zM377.756 624.64c-19.34 0-38.146 10.034-48.512 27.988l-89.53 155.070c-15.452 26.764-6.282 60.986 20.482 76.438 26.762 15.45 60.986 6.284 76.438-20.482l89.53-155.072c15.452-26.764 6.282-60.986-20.482-76.438-8.81-5.084-18.432-7.504-27.926-7.504zM735.856 26.744c-11.602 0-22.886 6.022-29.108 16.792l-89.53 155.070c-9.27 16.056-3.77 36.592 12.29 45.864 16.056 9.264 36.59 3.77 45.864-12.292l89.532-155.068c9.27-16.058 3.768-36.592-12.292-45.864-5.286-3.048-11.060-4.502-16.756-4.502zM279.344 530.060c-8.86 0-17.838 2.256-26.064 7.006l-155.072 89.53c-24.978 14.422-33.538 46.362-19.116 71.342 14.42 24.978 46.364 33.538 71.342 19.116l155.070-89.53c24.98-14.422 33.538-46.362 19.116-71.34-9.668-16.756-27.226-26.124-45.276-26.124zM899.648 194.326c-5.064 0-10.196 1.29-14.894 4.004l-155.068 89.53c-14.274 8.24-19.164 26.494-10.924 40.768 8.242 14.276 26.496 19.166 40.766 10.924l155.070-89.532c14.274-8.24 19.164-26.492 10.924-40.766-5.53-9.574-15.562-14.928-25.874-14.928zM243.41 399.504h-179.060c-26.784 0-48.496 21.712-48.496 48.496s21.712 48.496 48.496 48.496h179.060c26.784 0 48.496-21.712 48.496-48.496s-21.712-48.496-48.496-48.496zM959.65 418.156c-0.002 0 0 0 0 0h-179.060c-16.482 0.002-29.844 13.364-29.844 29.844s13.364 29.844 29.844 29.844c0.002 0 0 0 0 0h179.060c16.482 0 29.844-13.362 29.844-29.844 0-16.48-13.364-29.844-29.844-29.844zM124.366 179.402c-15.472 0-30.518 8.028-38.81 22.39-12.362 21.41-5.026 48.79 16.384 61.148l155.072 89.532c21.41 12.368 48.79 5.028 61.15-16.384 12.362-21.412 5.026-48.79-16.384-61.15l-155.072-89.53c-7.050-4.070-14.748-6.006-22.34-6.006zM744.632 552.448c-10.314 0-20.346 5.352-25.874 14.926-8.24 14.274-3.35 32.526 10.924 40.768l155.070 89.528c14.272 8.236 32.526 3.352 40.768-10.922 8.24-14.274 3.35-32.526-10.924-40.768l-155.070-89.528c-4.7-2.714-9.83-4.004-14.894-4.004zM288.136 19.284c-6.962 0-14.016 1.774-20.48 5.504-19.626 11.332-26.35 36.428-15.020 56.054l89.53 155.070c11.33 19.628 36.426 26.352 56.054 15.022 19.626-11.332 26.35-36.43 15.020-56.054l-89.53-155.072c-7.598-13.166-21.392-20.524-35.574-20.524zM646.266 650.758c-5.062 0-10.196 1.29-14.894 4.002-14.274 8.242-19.164 26.494-10.924 40.766l89.534 155.070c8.24 14.274 26.492 19.166 40.766 10.922 14.274-8.242 19.164-26.494 10.924-40.766l-89.532-155.070c-5.53-9.57-15.56-14.924-25.874-14.924z" />
<glyph unicode="&#xe97d;" glyph-name="spinner4" d="M192 448c0 12.18 0.704 24.196 2.030 36.022l-184.98 60.104c-5.916-31.14-9.050-63.264-9.050-96.126 0-147.23 62.166-279.922 161.654-373.324l114.284 157.296c-52.124 56.926-83.938 132.758-83.938 216.028zM832 448c0-83.268-31.812-159.102-83.938-216.028l114.284-157.296c99.488 93.402 161.654 226.094 161.654 373.324 0 32.862-3.132 64.986-9.048 96.126l-184.98-60.104c1.324-11.828 2.028-23.842 2.028-36.022zM576 761.592c91.934-18.662 169.544-76.742 214.45-155.826l184.978 60.102c-73.196 155.42-222.24 268.060-399.428 290.156v-194.432zM233.55 605.768c44.906 79.084 122.516 137.164 214.45 155.826v194.43c-177.188-22.096-326.23-134.736-399.426-290.154l184.976-60.102zM644.556 156.672c-40.39-18.408-85.272-28.672-132.556-28.672s-92.166 10.264-132.554 28.67l-114.292-157.31c73.206-40.366 157.336-63.36 246.846-63.36s173.64 22.994 246.848 63.36l-114.292 157.312z" />
<glyph unicode="&#xe97e;" glyph-name="spinner5" d="M512 960c-282.77 0-512-229.23-512-512s229.23-512 512-512 512 229.23 512 512-229.23 512-512 512zM512 704c141.384 0 256-114.616 256-256s-114.616-256-256-256-256 114.616-256 256 114.616 256 256 256zM817.47 142.53c-81.594-81.594-190.080-126.53-305.47-126.53-115.392 0-223.876 44.936-305.47 126.53s-126.53 190.078-126.53 305.47c0 115.39 44.936 223.876 126.53 305.47l67.882-67.882c0 0 0 0 0 0-131.006-131.006-131.006-344.17 0-475.176 63.462-63.462 147.838-98.412 237.588-98.412 89.748 0 174.124 34.95 237.588 98.412 131.006 131.006 131.006 344.168 0 475.176l67.882 67.882c81.594-81.594 126.53-190.080 126.53-305.47 0-115.392-44.936-223.876-126.53-305.47z" />
<glyph unicode="&#xe97f;" glyph-name="spinner6" d="M384 832c0 70.692 57.308 128 128 128s128-57.308 128-128c0-70.692-57.308-128-128-128s-128 57.308-128 128zM790.994 448c0 0 0 0 0 0 0 57.993 47.013 105.006 105.006 105.006s105.006-47.013 105.006-105.006c0 0 0 0 0 0 0-57.993-47.013-105.006-105.006-105.006s-105.006 47.013-105.006 105.006zM688.424 176.47c0 52.526 42.58 95.106 95.106 95.106s95.106-42.58 95.106-95.106c0-52.526-42.58-95.106-95.106-95.106s-95.106 42.58-95.106 95.106zM425.862 64c0 47.573 38.565 86.138 86.138 86.138s86.138-38.565 86.138-86.138c0-47.573-38.565-86.138-86.138-86.138s-86.138 38.565-86.138 86.138zM162.454 176.47c0 43.088 34.93 78.018 78.018 78.018s78.018-34.93 78.018-78.018c0-43.088-34.93-78.018-78.018-78.018s-78.018 34.93-78.018 78.018zM57.338 448c0 39.026 31.636 70.662 70.662 70.662s70.662-31.636 70.662-70.662c0-39.026-31.636-70.662-70.662-70.662s-70.662 31.636-70.662 70.662zM176.472 719.528c0 0 0 0 0 0 0 35.346 28.654 64 64 64s64-28.654 64-64c0 0 0 0 0 0 0-35.346-28.654-64-64-64s-64 28.654-64 64zM899.464 719.528c0-64.024-51.906-115.934-115.936-115.934-64.024 0-115.936 51.91-115.936 115.934 0 64.032 51.912 115.934 115.936 115.934 64.030 0 115.936-51.902 115.936-115.934z" />
<glyph unicode="&#xe980;" glyph-name="spinner7" d="M416 32c0 53.019 42.981 96 96 96s96-42.981 96-96c0-53.019-42.981-96-96-96s-96 42.981-96 96zM0 448c0 53.019 42.981 96 96 96s96-42.981 96-96c0-53.019-42.981-96-96-96s-96 42.981-96 96zM832 448c0 53.019 42.981 96 96 96s96-42.981 96-96c0-53.019-42.981-96-96-96s-96 42.981-96 96zM121.844 742.156c0 53.019 42.981 96 96 96s96-42.981 96-96c0-53.019-42.981-96-96-96s-96 42.981-96 96zM710.156 153.844c0 53.019 42.981 96 96 96s96-42.981 96-96c0-53.019-42.981-96-96-96s-96 42.981-96 96zM121.844 153.844c0 53.019 42.981 96 96 96s96-42.981 96-96c0-53.019-42.981-96-96-96s-96 42.981-96 96zM710.156 742.156c0 53.019 42.981 96 96 96s96-42.981 96-96c0-53.019-42.981-96-96-96s-96 42.981-96 96z" />
<glyph unicode="&#xe981;" glyph-name="spinner8" d="M512-64c-136.76 0-265.334 53.258-362.040 149.96-96.702 96.706-149.96 225.28-149.96 362.040 0 96.838 27.182 191.134 78.606 272.692 50 79.296 120.664 143.372 204.356 185.3l43-85.832c-68.038-34.084-125.492-86.186-166.15-150.67-41.746-66.208-63.812-142.798-63.812-221.49 0-229.382 186.618-416 416-416s416 186.618 416 416c0 78.692-22.066 155.282-63.81 221.49-40.66 64.484-98.114 116.584-166.15 150.67l43 85.832c83.692-41.928 154.358-106.004 204.356-185.3 51.422-81.558 78.604-175.854 78.604-272.692 0-136.76-53.258-265.334-149.96-362.040-96.706-96.702-225.28-149.96-362.040-149.96z" />
<glyph unicode="&#xe982;" glyph-name="spinner9" d="M512 960c-278.748 0-505.458-222.762-511.848-499.974 5.92 241.864 189.832 435.974 415.848 435.974 229.75 0 416-200.576 416-448 0-53.020 42.98-96 96-96s96 42.98 96 96c0 282.77-229.23 512-512 512zM512-64c278.748 0 505.458 222.762 511.848 499.974-5.92-241.864-189.832-435.974-415.848-435.974-229.75 0-416 200.576-416 448 0 53.020-42.98 96-96 96s-96-42.98-96-96c0-282.77 229.23-512 512-512z" />
</font>
</defs>
</svg>
